<svg width="74" height="74" viewBox="0 0 74 74" fill="none" xmlns="http://www.w3.org/2000/svg">
<circle cx="37" cy="37" r="37" fill="#EF3A01"/>
<path d="M54.6918 19.1067C54.4919 18.9352 54.2575 18.8087 54.0044 18.736C53.7513 18.6632 53.4855 18.6458 53.2251 18.685L29.3918 22.3517C28.9577 22.4175 28.5617 22.6369 28.2758 22.97C27.9898 23.3031 27.8328 23.7277 27.8334 24.1667V43.1417C26.9768 42.7233 26.0367 42.5039 25.0834 42.5C23.8143 42.5 22.5737 42.8763 21.5185 43.5814C20.4633 44.2865 19.6409 45.2886 19.1552 46.4611C18.6695 47.6336 18.5425 48.9238 18.79 50.1685C19.0376 51.4132 19.6488 52.5566 20.5461 53.454C21.4435 54.3513 22.5869 54.9625 23.8316 55.2101C25.0763 55.4576 26.3665 55.3306 27.539 54.8449C28.7115 54.3592 29.7136 53.5368 30.4187 52.4816C31.1238 51.4264 31.5001 50.1858 31.5001 48.9167V34.91L51.6668 31.8117V39.475C50.8102 39.0566 49.8701 38.8373 48.9168 38.8333C47.6477 38.8333 46.4071 39.2097 45.3518 39.9147C44.2966 40.6198 43.4742 41.622 42.9885 42.7945C42.5029 43.967 42.3758 45.2571 42.6234 46.5018C42.871 47.7466 43.4821 48.8899 44.3795 49.7873C45.2769 50.6847 46.4202 51.2958 47.6649 51.5434C48.9096 51.791 50.1998 51.6639 51.3723 51.1782C52.5448 50.6926 53.5469 49.8701 54.252 48.8149C54.9571 47.7597 55.3334 46.5191 55.3334 45.25V20.5C55.3334 20.2352 55.2761 19.9735 55.1653 19.733C55.0545 19.4925 54.893 19.2788 54.6918 19.1067ZM25.0834 51.6667C24.5395 51.6667 24.0078 51.5054 23.5556 51.2032C23.1034 50.901 22.7509 50.4716 22.5427 49.9691C22.3346 49.4666 22.2801 48.9136 22.3863 48.3802C22.4924 47.8467 22.7543 47.3567 23.1389 46.9721C23.5235 46.5875 24.0135 46.3256 24.5469 46.2195C25.0804 46.1134 25.6333 46.1679 26.1358 46.376C26.6383 46.5842 27.0678 46.9366 27.37 47.3889C27.6721 47.8411 27.8334 48.3728 27.8334 48.9167C27.8334 49.646 27.5437 50.3455 27.028 50.8612C26.5122 51.3769 25.8128 51.6667 25.0834 51.6667ZM48.9168 48C48.3729 48 47.8412 47.8387 47.3889 47.5366C46.9367 47.2344 46.5842 46.8049 46.3761 46.3024C46.1679 45.7999 46.1135 45.247 46.2196 44.7135C46.3257 44.1801 46.5876 43.6901 46.9722 43.3055C47.3568 42.9209 47.8468 42.659 48.3803 42.5529C48.9137 42.4467 49.4666 42.5012 49.9691 42.7093C50.4716 42.9175 50.9011 43.27 51.2033 43.7222C51.5055 44.1744 51.6668 44.7061 51.6668 45.25C51.6668 45.9794 51.377 46.6788 50.8613 47.1946C50.3456 47.7103 49.6461 48 48.9168 48ZM51.6668 28.09L31.5001 31.1883V25.6883L51.6668 22.645V28.09Z" fill="white"/>
</svg>
