<svg width="74" height="74" viewBox="0 0 74 74" fill="none" xmlns="http://www.w3.org/2000/svg">
<circle cx="37" cy="37" r="37" fill="#EF3A01"/>
<path d="M33.3334 46.1667H35.1667V48C35.1667 48.4862 35.3599 48.9525 35.7037 49.2964C36.0475 49.6402 36.5139 49.8333 37.0001 49.8333C37.4863 49.8333 37.9526 49.6402 38.2964 49.2964C38.6403 48.9525 38.8334 48.4862 38.8334 48V46.1667H40.6667C41.153 46.1667 41.6193 45.9735 41.9631 45.6297C42.3069 45.2859 42.5001 44.8196 42.5001 44.3333C42.5001 43.8471 42.3069 43.3808 41.9631 43.037C41.6193 42.6931 41.153 42.5 40.6667 42.5H38.8334V40.6667C38.8334 40.1804 38.6403 39.7141 38.2964 39.3703C37.9526 39.0265 37.4863 38.8333 37.0001 38.8333C36.5139 38.8333 36.0475 39.0265 35.7037 39.3703C35.3599 39.7141 35.1667 40.1804 35.1667 40.6667V42.5H33.3334C32.8472 42.5 32.3809 42.6931 32.0371 43.037C31.6932 43.3808 31.5001 43.8471 31.5001 44.3333C31.5001 44.8196 31.6932 45.2859 32.0371 45.6297C32.3809 45.9735 32.8472 46.1667 33.3334 46.1667ZM49.8334 26H46.1667V24.1667C46.1667 22.708 45.5873 21.309 44.5558 20.2776C43.5244 19.2461 42.1254 18.6667 40.6667 18.6667H33.3334C31.8747 18.6667 30.4758 19.2461 29.4443 20.2776C28.4129 21.309 27.8334 22.708 27.8334 24.1667V26H24.1667C22.7081 26 21.3091 26.5795 20.2777 27.6109C19.2462 28.6424 18.6667 30.0413 18.6667 31.5V49.8333C18.6667 51.292 19.2462 52.691 20.2777 53.7224C21.3091 54.7539 22.7081 55.3333 24.1667 55.3333H49.8334C51.2921 55.3333 52.6911 54.7539 53.7225 53.7224C54.754 52.691 55.3334 51.292 55.3334 49.8333V31.5C55.3334 30.0413 54.754 28.6424 53.7225 27.6109C52.6911 26.5795 51.2921 26 49.8334 26ZM31.5001 24.1667C31.5001 23.6804 31.6932 23.2141 32.0371 22.8703C32.3809 22.5265 32.8472 22.3333 33.3334 22.3333H40.6667C41.153 22.3333 41.6193 22.5265 41.9631 22.8703C42.3069 23.2141 42.5001 23.6804 42.5001 24.1667V26H31.5001V24.1667ZM51.6667 49.8333C51.6667 50.3196 51.4736 50.7859 51.1298 51.1297C50.786 51.4735 50.3196 51.6667 49.8334 51.6667H24.1667C23.6805 51.6667 23.2142 51.4735 22.8704 51.1297C22.5266 50.7859 22.3334 50.3196 22.3334 49.8333V37H51.6667V49.8333ZM51.6667 33.3333H22.3334V31.5C22.3334 31.0138 22.5266 30.5474 22.8704 30.2036C23.2142 29.8598 23.6805 29.6667 24.1667 29.6667H49.8334C50.3196 29.6667 50.786 29.8598 51.1298 30.2036C51.4736 30.5474 51.6667 31.0138 51.6667 31.5V33.3333Z" fill="white"/>
</svg>
