<svg width="74" height="74" viewBox="0 0 74 74" fill="none" xmlns="http://www.w3.org/2000/svg">
<circle cx="37" cy="37" r="37" fill="#EF3A01"/>
<path d="M51.465 32.5083C51.3126 32.206 51.0795 31.9517 50.7915 31.7738C50.5035 31.5958 50.1719 31.501 49.8333 31.5H40.6667V20.5C40.6863 20.0979 40.5731 19.7005 40.3445 19.3692C40.1159 19.0379 39.7845 18.791 39.4017 18.6667C39.0336 18.5456 38.6366 18.5442 38.2677 18.6628C37.8988 18.7814 37.5769 19.0138 37.3483 19.3267L22.6817 39.4933C22.4979 39.7589 22.3876 40.0683 22.3618 40.3903C22.336 40.7122 22.3958 41.0352 22.535 41.3267C22.6632 41.6599 22.8859 41.9484 23.1757 42.1568C23.4656 42.3653 23.81 42.4845 24.1667 42.5H33.3333V53.5C33.3336 53.8866 33.4561 54.2632 33.6833 54.576C33.9105 54.8888 34.2308 55.1218 34.5983 55.2417C34.7825 55.2988 34.9738 55.3296 35.1667 55.3333C35.4559 55.3341 35.7413 55.2664 35.9994 55.1357C36.2575 55.0051 36.481 54.8152 36.6517 54.5817L51.3183 34.415C51.5159 34.1415 51.6341 33.8187 51.6599 33.4823C51.6858 33.1459 51.6184 32.8089 51.465 32.5083ZM37 47.8533V40.6667C37 40.1804 36.8068 39.7141 36.463 39.3703C36.1192 39.0265 35.6529 38.8333 35.1667 38.8333H27.8333L37 26.1467V33.3333C37 33.8196 37.1931 34.2859 37.537 34.6297C37.8808 34.9735 38.3471 35.1667 38.8333 35.1667H46.1667L37 47.8533Z" fill="white"/>
</svg>
