<svg width="74" height="74" viewBox="0 0 74 74" fill="none" xmlns="http://www.w3.org/2000/svg">
<circle cx="37" cy="37" r="37" fill="#EF3A01"/>
<path d="M35.1666 18.6667C31.5406 18.6667 27.996 19.7419 24.9811 21.7564C21.9662 23.7709 19.6164 26.6342 18.2288 29.9842C16.8412 33.3341 16.4781 37.0204 17.1855 40.5767C17.8929 44.133 19.639 47.3997 22.203 49.9636C24.7669 52.5276 28.0336 54.2737 31.5899 54.9811C35.1463 55.6885 38.8325 55.3254 42.1825 53.9378C45.5324 52.5502 48.3957 50.2004 50.4102 47.1855C52.4247 44.1706 53.4999 40.626 53.4999 37C53.4999 34.5925 53.0257 32.2085 52.1044 29.9842C51.183 27.7599 49.8326 25.7388 48.1302 24.0364C46.4278 22.334 44.4068 20.9836 42.1825 20.0622C39.9582 19.1409 37.5742 18.6667 35.1666 18.6667ZM35.1666 51.6667C32.2658 51.6667 29.4302 50.8065 27.0182 49.1949C24.6063 47.5833 22.7264 45.2927 21.6164 42.6127C20.5063 39.9327 20.2158 36.9838 20.7817 34.1387C21.3477 31.2936 22.7445 28.6803 24.7957 26.6291C26.8469 24.578 29.4602 23.1811 32.3053 22.6152C35.1503 22.0493 38.0993 22.3397 40.7793 23.4498C43.4593 24.5599 45.7499 26.4397 47.3615 28.8517C48.9731 31.2636 49.8333 34.0992 49.8333 37C49.8333 40.8899 48.288 44.6204 45.5375 47.3709C42.787 50.1215 39.0564 51.6667 35.1666 51.6667ZM40.8499 38.155L36.9999 35.9367V27.8334C36.9999 27.3471 36.8068 26.8808 36.463 26.537C36.1191 26.1932 35.6528 26 35.1666 26C34.6804 26 34.214 26.1932 33.8702 26.537C33.5264 26.8808 33.3333 27.3471 33.3333 27.8334V37.22C33.3441 37.3463 33.3751 37.4701 33.4249 37.5867C33.4627 37.6955 33.5118 37.7999 33.5716 37.8984C33.6218 38.0026 33.6832 38.1009 33.7549 38.1917L34.0483 38.43L34.2133 38.595L38.9799 41.345C39.2593 41.5034 39.5754 41.5856 39.8966 41.5834C40.3025 41.5862 40.6979 41.4542 41.0208 41.2081C41.3436 40.9621 41.5757 40.6158 41.6805 40.2236C41.7854 39.8315 41.7571 39.4156 41.6002 39.0412C41.4432 38.6668 41.1664 38.3552 40.8133 38.155H40.8499Z" fill="white"/>
</svg>
