<svg width="74" height="74" viewBox="0 0 74 74" fill="none" xmlns="http://www.w3.org/2000/svg">
<circle cx="37" cy="37" r="37" fill="#EF3A01"/>
<path d="M31.5001 35.1667C31.8627 35.1667 32.2171 35.0592 32.5186 34.8577C32.8201 34.6563 33.0551 34.3699 33.1939 34.0349C33.3326 33.6999 33.3689 33.3313 33.2982 32.9757C33.2275 32.6201 33.0528 32.2934 32.7965 32.037C32.5401 31.7806 32.2134 31.606 31.8578 31.5352C31.5021 31.4645 31.1335 31.5008 30.7985 31.6396C30.4635 31.7783 30.1772 32.0133 29.9757 32.3148C29.7743 32.6163 29.6668 32.9708 29.6668 33.3334C29.6668 33.8196 29.8599 34.2859 30.2037 34.6297C30.5475 34.9735 31.0139 35.1667 31.5001 35.1667ZM37.0001 18.6667C33.3741 18.6667 29.8295 19.7419 26.8146 21.7564C23.7997 23.7709 21.4499 26.6342 20.0623 29.9842C18.6747 33.3341 18.3116 37.0204 19.019 40.5767C19.7264 44.133 21.4725 47.3997 24.0365 49.9636C26.6004 52.5276 29.8671 54.2737 33.4234 54.9811C36.9798 55.6885 40.666 55.3254 44.016 53.9378C47.3659 52.5502 50.2292 50.2004 52.2437 47.1855C54.2582 44.1706 55.3334 40.626 55.3334 37C55.3334 34.5925 54.8592 32.2085 53.9379 29.9842C53.0165 27.7599 51.6661 25.7388 49.9637 24.0364C48.2613 22.334 46.2403 20.9836 44.016 20.0622C41.7917 19.1409 39.4077 18.6667 37.0001 18.6667ZM37.0001 51.6667C34.0993 51.6667 31.2636 50.8065 28.8517 49.1949C26.4398 47.5833 24.5599 45.2927 23.4499 42.6127C22.3398 39.9327 22.0493 36.9838 22.6152 34.1387C23.1812 31.2936 24.578 28.6803 26.6292 26.6291C28.6804 24.578 31.2937 23.1811 34.1388 22.6152C36.9838 22.0493 39.9328 22.3397 42.6128 23.4498C45.2928 24.5599 47.5834 26.4397 49.195 28.8517C50.8066 31.2636 51.6668 34.0992 51.6668 37C51.6668 40.8899 50.1215 44.6204 47.371 47.3709C44.6205 50.1215 40.8899 51.6667 37.0001 51.6667ZM42.5001 38.8334H31.5001C31.0139 38.8334 30.5475 39.0265 30.2037 39.3703C29.8599 39.7141 29.6668 40.1805 29.6668 40.6667C29.6668 42.6116 30.4394 44.4769 31.8146 45.8521C33.1899 47.2274 35.0552 48 37.0001 48C38.945 48 40.8103 47.2274 42.1855 45.8521C43.5608 44.4769 44.3334 42.6116 44.3334 40.6667C44.3334 40.1805 44.1403 39.7141 43.7965 39.3703C43.4526 39.0265 42.9863 38.8334 42.5001 38.8334ZM37.0001 44.3334C36.3571 44.3327 35.7256 44.163 35.1689 43.8412C34.6122 43.5194 34.1499 43.0569 33.8284 42.5H40.1718C39.8503 43.0569 39.388 43.5194 38.8313 43.8412C38.2746 44.163 37.6431 44.3327 37.0001 44.3334ZM42.5001 31.5C42.1375 31.5 41.783 31.6075 41.4815 31.809C41.1801 32.0104 40.9451 32.2968 40.8063 32.6318C40.6676 32.9668 40.6312 33.3354 40.702 33.691C40.7727 34.0467 40.9473 34.3733 41.2037 34.6297C41.4601 34.8861 41.7868 35.0607 42.1424 35.1315C42.4981 35.2022 42.8667 35.1659 43.2017 35.0271C43.5367 34.8884 43.823 34.6534 44.0245 34.3519C44.2259 34.0504 44.3334 33.696 44.3334 33.3334C44.3334 32.8471 44.1403 32.3808 43.7965 32.037C43.4526 31.6932 42.9863 31.5 42.5001 31.5Z" fill="white"/>
</svg>
