<svg width="74" height="74" viewBox="0 0 74 74" fill="none" xmlns="http://www.w3.org/2000/svg">
<circle cx="37" cy="37" r="37" fill="#EF3A01"/>
<path d="M38.6318 48.11C38.1747 47.9449 37.6708 47.968 37.2308 48.1743C36.7907 48.3805 36.4506 48.7531 36.2851 49.21L34.9468 52.8767C34.7817 53.3337 34.8048 53.8377 35.011 54.2777C35.2173 54.7177 35.5898 55.0579 36.0468 55.2233C36.2466 55.2959 36.4575 55.3331 36.6701 55.3333C37.0469 55.3332 37.4145 55.2169 37.7228 55.0004C38.0312 54.7839 38.2653 54.4777 38.3935 54.1233L39.7318 50.4567C39.8969 49.9996 39.8738 49.4957 39.6675 49.0557C39.4613 48.6156 39.0887 48.2755 38.6318 48.11ZM31.2985 48.11C30.8414 47.9449 30.3375 47.968 29.8974 48.1743C29.4574 48.3805 29.1173 48.7531 28.9518 49.21L27.6135 52.8767C27.4483 53.3337 27.4715 53.8377 27.6777 54.2777C27.884 54.7177 28.2565 55.0579 28.7135 55.2233C28.9133 55.2959 29.1242 55.3331 29.3368 55.3333C29.7136 55.3332 30.0811 55.2169 30.3895 55.0004C30.6979 54.7839 30.932 54.4777 31.0601 54.1233L32.3985 50.4567C32.5636 49.9996 32.5405 49.4957 32.3342 49.0557C32.1279 48.6156 31.7554 48.2755 31.2985 48.11ZM31.2985 35.2767C30.8414 35.1116 30.3375 35.1347 29.8974 35.3409C29.4574 35.5472 29.1173 35.9197 28.9518 36.3767L26.9351 41.8767C26.835 42.1535 26.8031 42.4503 26.8419 42.742C26.8808 43.0338 26.9893 43.3119 27.1584 43.5529C27.3274 43.7938 27.5519 43.9905 27.813 44.1264C28.0742 44.2622 28.3641 44.3332 28.6585 44.3333C29.0352 44.3332 29.4028 44.2169 29.7112 44.0004C30.0195 43.7839 30.2537 43.4777 30.3818 43.1233L32.3985 37.6233C32.5636 37.1663 32.5405 36.6624 32.3342 36.2223C32.1279 35.7823 31.7554 35.4422 31.2985 35.2767ZM38.6318 35.2767C38.1747 35.1116 37.6708 35.1347 37.2308 35.3409C36.7907 35.5472 36.4506 35.9197 36.2851 36.3767L34.2685 41.8767C34.1684 42.1535 34.1364 42.4503 34.1753 42.742C34.2141 43.0338 34.3227 43.3119 34.4917 43.5529C34.6607 43.7938 34.8853 43.9905 35.1464 44.1264C35.4075 44.2622 35.6975 44.3332 35.9918 44.3333C36.3686 44.3332 36.7361 44.2169 37.0445 44.0004C37.3529 43.7839 37.587 43.4777 37.7151 43.1233L39.7318 37.6233C39.8969 37.1663 39.8738 36.6624 39.6675 36.2223C39.4613 35.7823 39.0887 35.4422 38.6318 35.2767ZM48.7701 26.4033C47.6499 23.8294 45.7167 21.6937 43.2666 20.3235C40.8165 18.9534 37.9847 18.4244 35.2052 18.8176C32.4257 19.2108 29.8518 20.5045 27.8779 22.5005C25.904 24.4965 24.639 27.0846 24.2768 29.8683C22.677 30.2551 21.2539 31.1688 20.2364 32.4623C19.2188 33.7559 18.666 35.3542 18.6668 37C18.6635 38.0384 18.8808 39.0657 19.3043 40.0139C19.7278 40.9621 20.3479 41.8095 21.1235 42.5C21.3019 42.6714 21.5133 42.805 21.7448 42.8925C21.9762 42.9801 22.223 43.0199 22.4703 43.0095C22.7176 42.9991 22.9602 42.9388 23.1835 42.8322C23.4068 42.7255 23.6063 42.5747 23.7698 42.389C23.9332 42.2032 24.0574 41.9862 24.1348 41.7511C24.2122 41.5161 24.2412 41.2677 24.2201 41.0212C24.1989 40.7746 24.1281 40.5348 24.0118 40.3164C23.8955 40.0979 23.7362 39.9053 23.5435 39.75C23.159 39.4031 22.8524 38.9786 22.6439 38.5046C22.4353 38.0306 22.3295 37.5178 22.3335 37C22.3335 36.0275 22.7198 35.0949 23.4074 34.4073C24.095 33.7197 25.0277 33.3333 26.0001 33.3333C26.4863 33.3333 26.9527 33.1402 27.2965 32.7964C27.6403 32.4526 27.8335 31.9862 27.8335 31.5C27.8381 29.3317 28.6113 27.2352 30.0156 25.5831C31.4199 23.9309 33.3644 22.8301 35.5037 22.4761C37.6429 22.1221 39.8384 22.538 41.7 23.6497C43.5616 24.7614 44.9689 26.4971 45.6718 28.5483C45.7766 28.8634 45.965 29.1441 46.2168 29.3604C46.4687 29.5767 46.7745 29.7206 47.1018 29.7767C48.3744 29.9962 49.5292 30.6566 50.3639 31.642C51.1985 32.6275 51.6597 33.8753 51.6668 35.1667C51.6948 36.5165 51.21 37.8268 50.3101 38.8333C50.0174 39.1978 49.875 39.6603 49.912 40.1263C49.949 40.5923 50.1626 41.0266 50.5091 41.3403C50.8556 41.6541 51.3089 41.8236 51.7763 41.8142C52.2436 41.8049 52.6898 41.6174 53.0234 41.29C54.0333 40.136 54.7375 38.7472 55.0715 37.2506C55.4056 35.754 55.3589 34.1975 54.9357 32.7236C54.5126 31.2498 53.7264 29.9056 52.6492 28.8142C51.5721 27.7229 50.2383 26.9191 48.7701 26.4767V26.4033ZM45.9651 48.11C45.5081 47.9449 45.0041 47.968 44.5641 48.1743C44.1241 48.3805 43.7839 48.7531 43.6185 49.21L42.2801 52.8767C42.115 53.3337 42.1381 53.8377 42.3444 54.2777C42.5506 54.7177 42.9232 55.0579 43.3801 55.2233C43.5799 55.2959 43.7909 55.3331 44.0035 55.3333C44.3802 55.3332 44.7478 55.2169 45.0562 55.0004C45.3645 54.7839 45.5987 54.4777 45.7268 54.1233L47.0651 50.4567C47.2302 49.9996 47.2071 49.4957 47.0009 49.0557C46.7946 48.6156 46.4221 48.2755 45.9651 48.11ZM45.9651 35.2767C45.5081 35.1116 45.0041 35.1347 44.5641 35.3409C44.1241 35.5472 43.7839 35.9197 43.6185 36.3767L41.6018 41.8767C41.5017 42.1535 41.4698 42.4503 41.5086 42.742C41.5475 43.0338 41.656 43.3119 41.825 43.5529C41.9941 43.7938 42.2186 43.9905 42.4797 44.1264C42.7408 44.2622 43.0308 44.3332 43.3251 44.3333C43.7019 44.3332 44.0695 44.2169 44.3778 44.0004C44.6862 43.7839 44.9203 43.4777 45.0485 43.1233L47.0651 37.6233C47.2302 37.1663 47.2071 36.6624 47.0009 36.2223C46.7946 35.7823 46.4221 35.4422 45.9651 35.2767Z" fill="white"/>
</svg>
