<svg width="74" height="74" viewBox="0 0 74 74" fill="none" xmlns="http://www.w3.org/2000/svg">
<circle cx="37" cy="37" r="37" fill="#EF3A01"/>
<path d="M24.0384 47.3767C23.7809 47.6326 23.6052 47.9593 23.5336 48.3152C23.462 48.6711 23.4977 49.0403 23.6361 49.3759C23.7745 49.7116 24.0095 49.9985 24.3112 50.2005C24.613 50.4024 24.9679 50.5102 25.3309 50.5102C25.694 50.5102 26.0489 50.4024 26.3506 50.2005C26.6523 49.9985 26.8873 49.7116 27.0257 49.3759C27.1642 49.0403 27.1998 48.6711 27.1282 48.3152C27.0566 47.9593 26.8809 47.6326 26.6234 47.3767C26.2799 47.0352 25.8153 46.8435 25.3309 46.8435C24.8466 46.8435 24.3819 47.0352 24.0384 47.3767ZM49.9617 26.6233C50.2192 26.3674 50.3949 26.0407 50.4666 25.6848C50.5382 25.3289 50.5025 24.9597 50.3641 24.624C50.2256 24.2884 49.9907 24.0014 49.6889 23.7995C49.3872 23.5976 49.0323 23.4898 48.6692 23.4898C48.3062 23.4898 47.9513 23.5976 47.6496 23.7995C47.3478 24.0014 47.1129 24.2884 46.9744 24.624C46.836 24.9597 46.8003 25.3289 46.8719 25.6848C46.9436 26.0407 47.1193 26.3674 47.3767 26.6233C47.7202 26.9648 48.1849 27.1564 48.6692 27.1564C49.1536 27.1564 49.6182 26.9648 49.9617 26.6233ZM26.6234 26.6233C26.8809 26.3674 27.0566 26.0407 27.1282 25.6848C27.1998 25.3289 27.1642 24.9597 27.0257 24.624C26.8873 24.2884 26.6523 24.0014 26.3506 23.7995C26.0489 23.5976 25.694 23.4898 25.3309 23.4898C24.9679 23.4898 24.613 23.5976 24.3112 23.7995C24.0095 24.0014 23.7745 24.2884 23.6361 24.624C23.4977 24.9597 23.462 25.3289 23.5336 25.6848C23.6052 26.0407 23.7809 26.3674 24.0384 26.6233C24.3819 26.9648 24.8466 27.1564 25.3309 27.1564C25.8153 27.1564 26.2799 26.9648 26.6234 26.6233ZM47.3767 47.3767C47.1193 47.6326 46.9436 47.9593 46.8719 48.3152C46.8003 48.6711 46.836 49.0403 46.9744 49.3759C47.1129 49.7116 47.3478 49.9985 47.6496 50.2005C47.9513 50.4024 48.3062 50.5102 48.6692 50.5102C49.0323 50.5102 49.3872 50.4024 49.6889 50.2005C49.9907 49.9985 50.2256 49.7116 50.3641 49.3759C50.5025 49.0403 50.5382 48.6711 50.4666 48.3152C50.3949 47.9593 50.2192 47.6326 49.9617 47.3767C49.6182 47.0352 49.1536 46.8435 48.6692 46.8435C48.1849 46.8435 47.7202 47.0352 47.3767 47.3767ZM53.5001 35.1667H50.5851L52.9684 32.8017C53.1394 32.6307 53.2749 32.4278 53.3675 32.2044C53.46 31.9811 53.5076 31.7417 53.5076 31.5C53.5076 31.2582 53.46 31.0189 53.3675 30.7955C53.2749 30.5722 53.1394 30.3693 52.9684 30.1983C52.7975 30.0274 52.5945 29.8918 52.3712 29.7993C52.1479 29.7068 51.9085 29.6592 51.6667 29.6592C51.425 29.6592 51.1856 29.7068 50.9623 29.7993C50.739 29.8918 50.536 30.0274 50.3651 30.1983L45.4151 35.1667H41.4184L45.6351 30.9683C45.806 30.7974 45.9416 30.5945 46.0341 30.3711C46.1266 30.1478 46.1742 29.9084 46.1742 29.6667C46.1742 29.4249 46.1266 29.1855 46.0341 28.9622C45.9416 28.7389 45.806 28.5359 45.6351 28.365C45.4641 28.1941 45.2612 28.0585 45.0379 27.9659C44.8145 27.8734 44.5752 27.8258 44.3334 27.8258C44.0917 27.8258 43.8523 27.8734 43.629 27.9659C43.4056 28.0585 43.2027 28.1941 43.0317 28.365L38.8334 32.5817V28.585L43.8017 23.635C43.9727 23.4641 44.1083 23.2611 44.2008 23.0378C44.2933 22.8144 44.3409 22.5751 44.3409 22.3333C44.3409 22.0916 44.2933 21.8522 44.2008 21.6289C44.1083 21.4055 43.9727 21.2026 43.8017 21.0317C43.6308 20.8607 43.4279 20.7251 43.2045 20.6326C42.9812 20.5401 42.7418 20.4925 42.5001 20.4925C42.0119 20.4925 41.5436 20.6864 41.1984 21.0317L38.8334 23.415V20.5C38.8334 20.0138 38.6403 19.5474 38.2964 19.2036C37.9526 18.8598 37.4863 18.6667 37.0001 18.6667C36.5139 18.6667 36.0475 18.8598 35.7037 19.2036C35.3599 19.5474 35.1667 20.0138 35.1667 20.5V23.415L32.8017 21.0317C32.6308 20.8607 32.4279 20.7251 32.2045 20.6326C31.9812 20.5401 31.7418 20.4925 31.5001 20.4925C31.2583 20.4925 31.019 20.5401 30.7956 20.6326C30.5723 20.7251 30.3694 20.8607 30.1984 21.0317C29.8532 21.3769 29.6592 21.8451 29.6592 22.3333C29.6592 22.8215 29.8532 23.2898 30.1984 23.635L35.1667 28.585V32.5817L30.9684 28.365C30.7975 28.1941 30.5945 28.0585 30.3712 27.9659C30.1479 27.8734 29.9085 27.8258 29.6667 27.8258C29.425 27.8258 29.1856 27.8734 28.9623 27.9659C28.739 28.0585 28.536 28.1941 28.3651 28.365C28.1941 28.5359 28.0585 28.7389 27.966 28.9622C27.8735 29.1855 27.8259 29.4249 27.8259 29.6667C27.8259 29.9084 27.8735 30.1478 27.966 30.3711C28.0585 30.5945 28.1941 30.7974 28.3651 30.9683L32.5817 35.1667H28.5851L23.6351 30.1983C23.2899 29.8531 22.8216 29.6592 22.3334 29.6592C21.8452 29.6592 21.377 29.8531 21.0317 30.1983C20.6865 30.5435 20.4926 31.0118 20.4926 31.5C20.4926 31.9882 20.6865 32.4564 21.0317 32.8017L23.4151 35.1667H20.5001C20.0139 35.1667 19.5475 35.3598 19.2037 35.7036C18.8599 36.0474 18.6667 36.5138 18.6667 37C18.6667 37.4862 18.8599 37.9525 19.2037 38.2964C19.5475 38.6402 20.0139 38.8333 20.5001 38.8333H23.4151L21.0317 41.1983C20.8599 41.3688 20.7235 41.5715 20.6304 41.7949C20.5374 42.0183 20.4895 42.258 20.4895 42.5C20.4895 42.742 20.5374 42.9816 20.6304 43.205C20.7235 43.4285 20.8599 43.6312 21.0317 43.8017C21.2022 43.9735 21.4049 44.1099 21.6284 44.203C21.8518 44.296 22.0914 44.344 22.3334 44.344C22.5754 44.344 22.8151 44.296 23.0385 44.203C23.2619 44.1099 23.4646 43.9735 23.6351 43.8017L28.5851 38.8333H32.5817L28.3651 43.0317C28.1932 43.2021 28.0569 43.4049 27.9638 43.6283C27.8707 43.8517 27.8228 44.0913 27.8228 44.3333C27.8228 44.5753 27.8707 44.815 27.9638 45.0384C28.0569 45.2618 28.1932 45.4646 28.3651 45.635C28.5355 45.8068 28.7383 45.9432 28.9617 46.0363C29.1851 46.1294 29.4247 46.1773 29.6667 46.1773C29.9088 46.1773 30.1484 46.1294 30.3718 46.0363C30.5952 45.9432 30.798 45.8068 30.9684 45.635L35.1667 41.4183V45.415L30.1984 50.365C29.8532 50.7102 29.6592 51.1784 29.6592 51.6667C29.6592 52.1549 29.8532 52.6231 30.1984 52.9683C30.5436 53.3135 31.0119 53.5075 31.5001 53.5075C31.9883 53.5075 32.4565 53.3135 32.8017 52.9683L35.1667 50.585V53.5C35.1667 53.9862 35.3599 54.4525 35.7037 54.7964C36.0475 55.1402 36.5139 55.3333 37.0001 55.3333C37.4863 55.3333 37.9526 55.1402 38.2964 54.7964C38.6403 54.4525 38.8334 53.9862 38.8334 53.5V50.585L41.1984 52.9683C41.3688 53.1402 41.5716 53.2766 41.795 53.3696C42.0184 53.4627 42.2581 53.5106 42.5001 53.5106C42.7421 53.5106 42.9817 53.4627 43.2051 53.3696C43.4285 53.2766 43.6313 53.1402 43.8017 52.9683C43.9736 52.7979 44.11 52.5951 44.203 52.3717C44.2961 52.1483 44.344 51.9087 44.344 51.6667C44.344 51.4246 44.2961 51.185 44.203 50.9616C44.11 50.7382 43.9736 50.5354 43.8017 50.365L38.8334 45.415V41.4183L43.0317 45.635C43.2022 45.8068 43.4049 45.9432 43.6284 46.0363C43.8518 46.1294 44.0914 46.1773 44.3334 46.1773C44.5754 46.1773 44.8151 46.1294 45.0385 46.0363C45.2619 45.9432 45.4646 45.8068 45.6351 45.635C45.8069 45.4646 45.9433 45.2618 46.0364 45.0384C46.1295 44.815 46.1774 44.5753 46.1774 44.3333C46.1774 44.0913 46.1295 43.8517 46.0364 43.6283C45.9433 43.4049 45.8069 43.2021 45.6351 43.0317L41.4184 38.8333H45.4151L50.3651 43.8017C50.5355 43.9735 50.7383 44.1099 50.9617 44.203C51.1851 44.296 51.4247 44.344 51.6667 44.344C51.9088 44.344 52.1484 44.296 52.3718 44.203C52.5952 44.1099 52.798 43.9735 52.9684 43.8017C53.1402 43.6312 53.2766 43.4285 53.3697 43.205C53.4628 42.9816 53.5107 42.742 53.5107 42.5C53.5107 42.258 53.4628 42.0183 53.3697 41.7949C53.2766 41.5715 53.1402 41.3688 52.9684 41.1983L50.5851 38.8333H53.5001C53.9863 38.8333 54.4526 38.6402 54.7964 38.2964C55.1403 37.9525 55.3334 37.4862 55.3334 37C55.3334 36.5138 55.1403 36.0474 54.7964 35.7036C54.4526 35.3598 53.9863 35.1667 53.5001 35.1667Z" fill="white"/>
</svg>
