<svg width="74" height="74" viewBox="0 0 74 74" fill="none" xmlns="http://www.w3.org/2000/svg">
<circle cx="37" cy="37" r="37" fill="#EF3A01"/>
<path d="M25.3401 46.1667L24.0384 47.4683C23.697 47.8118 23.5053 48.2765 23.5053 48.7608C23.5053 49.2452 23.697 49.7098 24.0384 50.0533C24.3819 50.3948 24.8466 50.5864 25.3309 50.5864C25.8153 50.5864 26.2799 50.3948 26.6234 50.0533L27.9251 48.7517C28.2254 48.4009 28.3824 47.9498 28.3646 47.4884C28.3467 47.027 28.1555 46.5893 27.8289 46.2628C27.5024 45.9363 27.0648 45.745 26.6033 45.7272C26.1419 45.7094 25.6908 45.8663 25.3401 46.1667ZM24.1667 37C24.1667 36.5138 23.9736 36.0474 23.6298 35.7036C23.286 35.3598 22.8196 35.1667 22.3334 35.1667H20.5001C20.0139 35.1667 19.5475 35.3598 19.2037 35.7036C18.8599 36.0474 18.6667 36.5138 18.6667 37C18.6667 37.4862 18.8599 37.9525 19.2037 38.2964C19.5475 38.6402 20.0139 38.8333 20.5001 38.8333H22.3334C22.8196 38.8333 23.286 38.6402 23.6298 38.2964C23.9736 37.9525 24.1667 37.4862 24.1667 37ZM37.0001 24.1667C37.4863 24.1667 37.9526 23.9735 38.2964 23.6297C38.6403 23.2859 38.8334 22.8196 38.8334 22.3333V20.5C38.8334 20.0138 38.6403 19.5474 38.2964 19.2036C37.9526 18.8598 37.4863 18.6667 37.0001 18.6667C36.5139 18.6667 36.0475 18.8598 35.7037 19.2036C35.3599 19.5474 35.1667 20.0138 35.1667 20.5V22.3333C35.1667 22.8196 35.3599 23.2859 35.7037 23.6297C36.0475 23.9735 36.5139 24.1667 37.0001 24.1667ZM25.3401 27.925C25.6816 28.2637 26.1425 28.4546 26.6234 28.4567C26.8647 28.4581 27.1039 28.4118 27.3272 28.3206C27.5506 28.2293 27.7538 28.0949 27.9251 27.925C28.2665 27.5815 28.4582 27.1168 28.4582 26.6325C28.4582 26.1481 28.2665 25.6835 27.9251 25.34L26.6234 24.0383C26.2727 23.738 25.8216 23.581 25.3602 23.5989C24.8987 23.6167 24.4611 23.808 24.1345 24.1345C23.808 24.461 23.6168 24.8987 23.5989 25.3601C23.5811 25.8215 23.7381 26.2726 24.0384 26.6233L25.3401 27.925ZM47.3401 28.4567C47.821 28.4546 48.2819 28.2637 48.6234 27.925L49.9251 26.6233C50.117 26.459 50.2729 26.2567 50.3829 26.0293C50.493 25.8018 50.5548 25.5541 50.5645 25.3016C50.5743 25.0491 50.5318 24.7973 50.4396 24.5621C50.3474 24.3268 50.2076 24.1131 50.0289 23.9345C49.8503 23.7558 49.6366 23.616 49.4013 23.5238C49.1661 23.4317 48.9143 23.3891 48.6618 23.3989C48.4093 23.4086 48.1616 23.4705 47.9341 23.5805C47.7067 23.6905 47.5044 23.8464 47.3401 24.0383L46.1667 25.34C45.8253 25.6835 45.6336 26.1481 45.6336 26.6325C45.6336 27.1168 45.8253 27.5815 46.1667 27.925C46.49 28.2465 46.9213 28.436 47.3767 28.4567H47.3401ZM53.5001 35.1667H51.6667C51.1805 35.1667 50.7142 35.3598 50.3704 35.7036C50.0266 36.0474 49.8334 36.5138 49.8334 37C49.8334 37.4862 50.0266 37.9525 50.3704 38.2964C50.7142 38.6402 51.1805 38.8333 51.6667 38.8333H53.5001C53.9863 38.8333 54.4526 38.6402 54.7964 38.2964C55.1403 37.9525 55.3334 37.4862 55.3334 37C55.3334 36.5138 55.1403 36.0474 54.7964 35.7036C54.4526 35.3598 53.9863 35.1667 53.5001 35.1667ZM37.0001 49.8333C36.5139 49.8333 36.0475 50.0265 35.7037 50.3703C35.3599 50.7141 35.1667 51.1804 35.1667 51.6667V53.5C35.1667 53.9862 35.3599 54.4525 35.7037 54.7964C36.0475 55.1402 36.5139 55.3333 37.0001 55.3333C37.4863 55.3333 37.9526 55.1402 38.2964 54.7964C38.6403 54.4525 38.8334 53.9862 38.8334 53.5V51.6667C38.8334 51.1804 38.6403 50.7141 38.2964 50.3703C37.9526 50.0265 37.4863 49.8333 37.0001 49.8333ZM48.6601 46.1667C48.3118 45.9729 47.9098 45.898 47.5151 45.9531C47.1204 46.0083 46.7544 46.1906 46.4725 46.4725C46.1907 46.7543 46.0084 47.1203 45.9532 47.515C45.8981 47.9097 45.973 48.3117 46.1667 48.66L47.4684 49.9617C47.8119 50.3031 48.2766 50.4948 48.7609 50.4948C49.2453 50.4948 49.7099 50.3031 50.0534 49.9617C50.3949 49.6182 50.5865 49.1535 50.5865 48.6692C50.5865 48.1848 50.3949 47.7202 50.0534 47.3767L48.6601 46.1667ZM37.0001 26.9167C35.0058 26.9167 33.0563 27.508 31.3981 28.616C29.7399 29.724 28.4475 31.2988 27.6843 33.1413C26.9211 34.9838 26.7214 37.0112 27.1105 38.9672C27.4996 40.9231 28.4599 42.7198 29.8701 44.13C31.2803 45.5402 33.0769 46.5005 35.0329 46.8896C36.9889 47.2786 39.0163 47.079 40.8588 46.3158C42.7013 45.5526 44.2761 44.2602 45.3841 42.602C46.492 40.9438 47.0834 38.9943 47.0834 37C47.0786 34.3272 46.0147 31.7653 44.1247 29.8753C42.2348 27.9854 39.6729 26.9215 37.0001 26.9167ZM37.0001 43.4167C35.731 43.4167 34.4904 43.0403 33.4352 42.3353C32.38 41.6302 31.5575 40.628 31.0719 39.4555C30.5862 38.283 30.4591 36.9929 30.7067 35.7482C30.9543 34.5034 31.5654 33.3601 32.4628 32.4627C33.3602 31.5653 34.5035 30.9542 35.7483 30.7066C36.993 30.459 38.2831 30.5861 39.4556 31.0718C40.6281 31.5574 41.6303 32.3799 42.3353 33.4351C43.0404 34.4903 43.4167 35.7309 43.4167 37C43.4167 38.7018 42.7407 40.3339 41.5373 41.5373C40.334 42.7406 38.7019 43.4167 37.0001 43.4167Z" fill="white"/>
</svg>
