<svg width="74" height="74" viewBox="0 0 74 74" fill="none" xmlns="http://www.w3.org/2000/svg">
<circle cx="37" cy="37" r="37" fill="#EF3A01"/>
<path d="M51.9601 25.4517C50.0137 23.5047 47.4331 22.321 44.6877 22.1158C41.9423 21.9105 39.2144 22.6974 37.0001 24.3334C34.6675 22.5984 31.7641 21.8117 28.8746 22.1316C25.9852 22.4516 23.3242 23.8545 21.4277 26.0578C19.5312 28.2611 18.5399 31.1012 18.6536 34.0061C18.7672 36.911 19.9773 39.665 22.0401 41.7134L35.6984 55.3901C35.8689 55.5619 36.0716 55.6983 36.295 55.7914C36.5184 55.8844 36.7581 55.9324 37.0001 55.9324C37.2421 55.9324 37.4817 55.8844 37.7052 55.7914C37.9286 55.6983 38.1313 55.5619 38.3018 55.3901L51.9601 41.7134C53.0283 40.6459 53.8757 39.3784 54.4538 37.9832C55.032 36.5881 55.3295 35.0927 55.3295 33.5826C55.3295 32.0724 55.032 30.577 54.4538 29.1819C53.8757 27.7868 53.0283 26.5192 51.9601 25.4517ZM49.3751 39.1101L37.0001 51.4851L24.6251 39.1101C23.205 37.7232 22.3663 35.8476 22.2794 33.8645C22.1925 31.8815 22.864 29.9397 24.1573 28.434C25.4507 26.9282 27.2688 25.9713 29.2423 25.7579C31.2158 25.5445 33.1964 26.0906 34.7818 27.2851L31.6468 34.6184C31.5378 34.8572 31.4814 35.1167 31.4814 35.3792C31.4814 35.6418 31.5378 35.9012 31.6468 36.1401C31.7632 36.3786 31.9301 36.5891 32.1358 36.7569C32.3416 36.9246 32.5813 37.0457 32.8384 37.1117L37.9168 38.3951L35.3501 43.6934C35.2437 43.91 35.1812 44.1455 35.166 44.3863C35.1508 44.6271 35.1833 44.8686 35.2617 45.0968C35.34 45.3251 35.4627 45.5356 35.6226 45.7163C35.7824 45.8971 35.9764 46.0445 36.1934 46.1501C36.4448 46.2718 36.7208 46.3345 37.0001 46.3334C37.3437 46.3341 37.6806 46.2382 37.9723 46.0567C38.2641 45.8751 38.4989 45.6153 38.6501 45.3067L42.3168 37.9734C42.434 37.7271 42.4949 37.4578 42.4949 37.1851C42.4949 36.9123 42.434 36.643 42.3168 36.3967C42.1956 36.1509 42.0233 35.9338 41.8115 35.7599C41.5997 35.586 41.3532 35.4593 41.0884 35.3884L35.9001 34.0867L38.5584 27.8717C40.0487 26.4325 42.0497 25.6442 44.1212 25.6803C46.1927 25.7164 48.165 26.5739 49.6043 28.0642C51.0435 29.5545 51.8318 31.5555 51.7957 33.627C51.7596 35.6985 50.9021 37.6708 49.4118 39.1101H49.3751Z" fill="white"/>
</svg>
