<svg width="74" height="74" viewBox="0 0 74 74" fill="none" xmlns="http://www.w3.org/2000/svg">
<circle cx="37" cy="37" r="37" fill="#EF3A01"/>
<path d="M54.6733 38.8333C54.4087 38.6146 54.0879 38.4745 53.7476 38.4292C53.4073 38.3838 53.061 38.4349 52.7483 38.5767C50.8097 39.4638 48.7019 39.9204 46.57 39.915C42.6262 39.9102 38.8443 38.3465 36.0488 35.5647C33.2532 32.7829 31.6709 29.0087 31.6467 25.065C31.655 23.829 31.8089 22.5983 32.105 21.3983C32.1678 21.0785 32.1443 20.7477 32.0367 20.44C31.9292 20.1323 31.7415 19.8588 31.4931 19.6477C31.2447 19.4367 30.9445 19.2957 30.6235 19.2392C30.3024 19.1828 29.9722 19.213 29.6667 19.3267C26.7926 20.619 24.2942 22.6207 22.4062 25.1438C20.5182 27.6669 19.3026 30.6285 18.8736 33.7504C18.4445 36.8723 18.8161 40.052 19.9534 42.9909C21.0908 45.9297 22.9565 48.5313 25.3754 50.551C27.7943 52.5708 30.6869 53.9425 33.7815 54.5373C36.8761 55.1321 40.0711 54.9305 43.0664 53.9514C46.0617 52.9723 48.7589 51.2479 50.9047 48.94C53.0505 46.6322 54.5745 43.8168 55.3333 40.7583C55.4258 40.4081 55.4124 40.0384 55.2949 39.6958C55.1775 39.3533 54.9612 39.0531 54.6733 38.8333ZM37.2567 51.0983C34.1799 51.0766 31.185 50.1044 28.6822 48.3148C26.1793 46.5253 24.2907 44.0058 23.2751 41.1014C22.2595 38.197 22.1664 35.0497 23.0086 32.0903C23.8509 29.131 25.5872 26.5043 27.98 24.57V25.065C27.9849 29.9939 29.945 34.7195 33.4303 38.2047C36.9155 41.69 41.6411 43.6501 46.57 43.655C47.8641 43.6597 49.155 43.5245 50.42 43.2517C49.1548 45.6451 47.2602 47.6477 44.9405 49.0434C42.6207 50.4391 39.9639 51.175 37.2567 51.1717V51.0983Z" fill="white"/>
</svg>
