<svg width="74" height="74" viewBox="0 0 74 74" fill="none" xmlns="http://www.w3.org/2000/svg">
<circle cx="37" cy="37" r="37" fill="#EF3A01"/>
<path d="M40.6667 35.1667H38.8333V27.8334H42.5C42.9862 27.8334 43.4525 28.0265 43.7964 28.3703C44.1402 28.7141 44.3333 29.1805 44.3333 29.6667C44.3333 30.1529 44.5265 30.6192 44.8703 30.963C45.2141 31.3069 45.6804 31.5 46.1667 31.5C46.6529 31.5 47.1192 31.3069 47.463 30.963C47.8068 30.6192 48 30.1529 48 29.6667C48 28.208 47.4205 26.8091 46.3891 25.7776C45.3576 24.7462 43.9587 24.1667 42.5 24.1667H38.8333V20.5C38.8333 20.0138 38.6402 19.5475 38.2964 19.2037C37.9525 18.8598 37.4862 18.6667 37 18.6667C36.5138 18.6667 36.0475 18.8598 35.7036 19.2037C35.3598 19.5475 35.1667 20.0138 35.1667 20.5V24.1667H33.3333C31.3884 24.1667 29.5231 24.9393 28.1479 26.3146C26.7726 27.6898 26 29.5551 26 31.5C26 33.4449 26.7726 35.3102 28.1479 36.6855C29.5231 38.0607 31.3884 38.8334 33.3333 38.8334H35.1667V46.1667H31.5C31.0138 46.1667 30.5475 45.9735 30.2036 45.6297C29.8598 45.2859 29.6667 44.8196 29.6667 44.3334C29.6667 43.8471 29.4735 43.3808 29.1297 43.037C28.7859 42.6932 28.3196 42.5 27.8333 42.5C27.3471 42.5 26.8808 42.6932 26.537 43.037C26.1932 43.3808 26 43.8471 26 44.3334C26 45.792 26.5795 47.191 27.6109 48.2224C28.6424 49.2539 30.0413 49.8334 31.5 49.8334H35.1667V53.5C35.1667 53.9863 35.3598 54.4526 35.7036 54.7964C36.0475 55.1402 36.5138 55.3334 37 55.3334C37.4862 55.3334 37.9525 55.1402 38.2964 54.7964C38.6402 54.4526 38.8333 53.9863 38.8333 53.5V49.8334H40.6667C42.6116 49.8334 44.4768 49.0607 45.8521 47.6855C47.2274 46.3102 48 44.4449 48 42.5C48 40.5551 47.2274 38.6898 45.8521 37.3146C44.4768 35.9393 42.6116 35.1667 40.6667 35.1667ZM35.1667 35.1667H33.3333C32.3609 35.1667 31.4282 34.7804 30.7406 34.0927C30.053 33.4051 29.6667 32.4725 29.6667 31.5C29.6667 30.5276 30.053 29.5949 30.7406 28.9073C31.4282 28.2197 32.3609 27.8334 33.3333 27.8334H35.1667V35.1667ZM40.6667 46.1667H38.8333V38.8334H40.6667C41.6391 38.8334 42.5718 39.2197 43.2594 39.9073C43.947 40.5949 44.3333 41.5276 44.3333 42.5C44.3333 43.4725 43.947 44.4051 43.2594 45.0927C42.5718 45.7804 41.6391 46.1667 40.6667 46.1667Z" fill="white"/>
</svg>
