<svg width="74" height="74" viewBox="0 0 74 74" fill="none" xmlns="http://www.w3.org/2000/svg">
<circle cx="37" cy="37" r="37" fill="#EF3A01"/>
<path d="M54.3983 33.6817L52.5649 32.6733L36.0649 23.5067H35.8633C35.7509 23.4591 35.6342 23.4223 35.5149 23.3967H34.8366C34.7113 23.4223 34.5886 23.4591 34.4699 23.5067H34.2683L17.7683 32.6733C17.4861 32.8332 17.2514 33.0651 17.0882 33.3453C16.9249 33.6255 16.8389 33.944 16.8389 34.2683C16.8389 34.5926 16.9249 34.9111 17.0882 35.1913C17.2514 35.4716 17.4861 35.7034 17.7683 35.8633L22.3333 38.3933V47.0833C22.3333 48.542 22.9127 49.941 23.9442 50.9724C24.9756 52.0039 26.3746 52.5833 27.8333 52.5833H42.4999C43.9586 52.5833 45.3576 52.0039 46.389 50.9724C47.4205 49.941 47.9999 48.542 47.9999 47.0833V38.3933L51.6666 36.34V41.5833C51.6666 42.0696 51.8598 42.5359 52.2036 42.8797C52.5474 43.2235 53.0137 43.4167 53.4999 43.4167C53.9862 43.4167 54.4525 43.2235 54.7963 42.8797C55.1401 42.5359 55.3333 42.0696 55.3333 41.5833V35.2767C55.3327 34.9518 55.2458 34.6329 55.0816 34.3527C54.9173 34.0724 54.6815 33.8408 54.3983 33.6817ZM44.3333 47.0833C44.3333 47.5696 44.1401 48.0359 43.7963 48.3797C43.4525 48.7235 42.9862 48.9167 42.4999 48.9167H27.8333C27.347 48.9167 26.8807 48.7235 26.5369 48.3797C26.1931 48.0359 25.9999 47.5696 25.9999 47.0833V40.4283L34.2683 45.0117L34.5433 45.1217H34.7083C34.8605 45.1408 35.0144 45.1408 35.1666 45.1217C35.3188 45.1408 35.4728 45.1408 35.6249 45.1217H35.7899C35.8873 45.1011 35.9803 45.0639 36.0649 45.0117L44.3333 40.4283V47.0833ZM35.1666 41.3267L22.4433 34.25L35.1666 27.1733L47.8899 34.25L35.1666 41.3267Z" fill="white"/>
</svg>
