<svg width="74" height="74" viewBox="0 0 74 74" fill="none" xmlns="http://www.w3.org/2000/svg">
<circle cx="37" cy="37" r="37" fill="#EF3A01"/>
<path d="M49.8334 31.5C49.8363 29.0394 49.1318 26.6299 47.8038 24.5585C46.4757 22.4871 44.5802 20.8412 42.3431 19.8168C40.1059 18.7923 37.6215 18.4326 35.1856 18.7805C32.7498 19.1284 30.4653 20.1692 28.6044 21.7789C26.7434 23.3887 25.3845 25.4994 24.6894 27.8598C23.9944 30.2201 23.9925 32.7305 24.684 35.0918C25.3756 37.4532 26.7314 39.566 28.59 41.1785C30.4485 42.791 32.7314 43.8351 35.1667 44.1867V48H33.3334C32.8472 48 32.3809 48.1931 32.037 48.537C31.6932 48.8808 31.5001 49.3471 31.5001 49.8333C31.5001 50.3196 31.6932 50.7859 32.037 51.1297C32.3809 51.4735 32.8472 51.6667 33.3334 51.6667H35.1667V53.5C35.1667 53.9862 35.3599 54.4525 35.7037 54.7964C36.0475 55.1402 36.5138 55.3333 37.0001 55.3333C37.4863 55.3333 37.9526 55.1402 38.2964 54.7964C38.6403 54.4525 38.8334 53.9862 38.8334 53.5V51.6667H40.6667C41.153 51.6667 41.6193 51.4735 41.9631 51.1297C42.3069 50.7859 42.5001 50.3196 42.5001 49.8333C42.5001 49.3471 42.3069 48.8808 41.9631 48.537C41.6193 48.1931 41.153 48 40.6667 48H38.8334V44.1867C41.8852 43.7462 44.6763 42.2217 46.6962 39.892C48.7162 37.5624 49.8298 34.5834 49.8334 31.5ZM37.0001 40.6667C35.1871 40.6667 33.4148 40.129 31.9073 39.1218C30.3999 38.1145 29.225 36.6829 28.5312 35.0079C27.8374 33.3329 27.6558 31.4898 28.0095 29.7117C28.3632 27.9335 29.2363 26.3002 30.5183 25.0182C31.8002 23.7362 33.4336 22.8632 35.2117 22.5095C36.9899 22.1558 38.833 22.3373 40.508 23.0311C42.183 23.7249 43.6146 24.8998 44.6219 26.4073C45.6291 27.9147 46.1667 29.687 46.1667 31.5C46.1667 32.7038 45.9296 33.8958 45.469 35.0079C45.0083 36.1201 44.3331 37.1306 43.4819 37.9818C42.6307 38.833 41.6202 39.5082 40.508 39.9689C39.3959 40.4296 38.2039 40.6667 37.0001 40.6667Z" fill="white"/>
</svg>
