<svg width="74" height="74" viewBox="0 0 74 74" fill="none" xmlns="http://www.w3.org/2000/svg">
<circle cx="37" cy="37" r="37" fill="#EF3A01"/>
<path d="M37.0001 18.6667C33.3741 18.6667 29.8295 19.7419 26.8146 21.7564C23.7997 23.7709 21.4499 26.6342 20.0623 29.9842C18.6747 33.3341 18.3116 37.0204 19.019 40.5767C19.7264 44.133 21.4725 47.3997 24.0365 49.9636C26.6004 52.5276 29.8671 54.2737 33.4234 54.9811C36.9798 55.6885 40.666 55.3254 44.016 53.9378C47.3659 52.5502 50.2292 50.2004 52.2437 47.1855C54.2582 44.1706 55.3334 40.626 55.3334 37C55.3334 34.5925 54.8592 32.2085 53.9379 29.9842C53.0165 27.7599 51.6661 25.7388 49.9637 24.0364C48.2613 22.334 46.2403 20.9836 44.016 20.0622C41.7917 19.1409 39.4077 18.6667 37.0001 18.6667ZM38.8334 51.5384V49.8334C38.8334 49.3471 38.6403 48.8808 38.2965 48.537C37.9526 48.1932 37.4863 48 37.0001 48C36.5139 48 36.0475 48.1932 35.7037 48.537C35.3599 48.8808 35.1668 49.3471 35.1668 49.8334V51.5384C31.9401 51.1292 28.9409 49.659 26.641 47.3591C24.3411 45.0592 22.8709 42.0601 22.4618 38.8334H24.1668C24.653 38.8334 25.1193 38.6402 25.4631 38.2964C25.8069 37.9526 26.0001 37.4863 26.0001 37C26.0001 36.5138 25.8069 36.0475 25.4631 35.7037C25.1193 35.3598 24.653 35.1667 24.1668 35.1667H22.4618C22.8709 31.94 24.3411 28.9408 26.641 26.6409C28.9409 24.341 31.9401 22.8709 35.1668 22.4617V24.1667C35.1668 24.6529 35.3599 25.1192 35.7037 25.463C36.0475 25.8069 36.5139 26 37.0001 26C37.4863 26 37.9526 25.8069 38.2965 25.463C38.6403 25.1192 38.8334 24.6529 38.8334 24.1667V22.4617C42.0601 22.8709 45.0593 24.341 47.3592 26.6409C49.6591 28.9408 51.1292 31.94 51.5384 35.1667H49.8334C49.3472 35.1667 48.8809 35.3598 48.5371 35.7037C48.1932 36.0475 48.0001 36.5138 48.0001 37C48.0001 37.4863 48.1932 37.9526 48.5371 38.2964C48.8809 38.6402 49.3472 38.8334 49.8334 38.8334H51.5384C51.1292 42.0601 49.6591 45.0592 47.3592 47.3591C45.0593 49.659 42.0601 51.1292 38.8334 51.5384ZM42.7568 28.8417L33.5901 32.7284C33.1628 32.9135 32.8219 33.2544 32.6368 33.6817L28.7501 42.8484C28.6057 43.1845 28.5652 43.5562 28.6338 43.9156C28.7024 44.275 28.877 44.6057 29.1351 44.865C29.4736 45.2105 29.9348 45.4081 30.4184 45.415C30.6721 45.4153 30.9226 45.3589 31.1518 45.25L40.3184 41.3634C40.7458 41.1782 41.0866 40.8374 41.2718 40.41L45.1584 31.2434C45.3001 30.9074 45.3384 30.5369 45.2684 30.179C45.1984 29.8212 45.0233 29.4924 44.7655 29.2346C44.5077 28.9768 44.1789 28.8017 43.8211 28.7317C43.4633 28.6617 43.0927 28.7 42.7568 28.8417ZM38.1918 38.1917L34.0118 40.025L35.8451 35.845L40.0251 34.0117L38.1918 38.1917Z" fill="white"/>
</svg>
