<svg width="74" height="74" viewBox="0 0 74 74" fill="none" xmlns="http://www.w3.org/2000/svg">
<circle cx="37" cy="37" r="37" fill="#EF3A01"/>
<path d="M46.3317 20.17C44.6456 18.7833 42.6711 17.7904 40.5524 17.2639C38.4337 16.7374 36.2242 16.6905 34.0851 17.1267C31.2367 17.702 28.6235 19.1105 26.577 21.1734C24.5304 23.2363 23.1428 25.8606 22.5901 28.7134C22.1864 30.8523 22.2598 33.054 22.8049 35.1614C23.3499 37.2688 24.3533 39.23 25.7434 40.905C27.0335 42.3608 27.773 44.2225 27.8334 46.1667V51.6667C27.8334 53.1254 28.4129 54.5243 29.4443 55.5558C30.4758 56.5872 31.8747 57.1667 33.3334 57.1667H40.6667C42.1254 57.1667 43.5244 56.5872 44.5558 55.5558C45.5873 54.5243 46.1667 53.1254 46.1667 51.6667V46.515C46.2283 44.3685 47.0169 42.3065 48.4034 40.6667C50.8328 37.6615 51.978 33.8189 51.59 29.974C51.2021 26.1292 49.3125 22.5928 46.3317 20.1334V20.17ZM42.5001 51.6667C42.5001 52.1529 42.3069 52.6192 41.9631 52.9631C41.6193 53.3069 41.153 53.5 40.6667 53.5H33.3334C32.8472 53.5 32.3808 53.3069 32.037 52.9631C31.6932 52.6192 31.5001 52.1529 31.5001 51.6667V49.8334H42.5001V51.6667ZM45.5617 38.3934C43.7183 40.5798 42.6428 43.3104 42.5001 46.1667H38.8334V40.6667C38.8334 40.1805 38.6402 39.7141 38.2964 39.3703C37.9526 39.0265 37.4863 38.8334 37.0001 38.8334C36.5138 38.8334 36.0475 39.0265 35.7037 39.3703C35.3599 39.7141 35.1667 40.1805 35.1667 40.6667V46.1667H31.5001C31.4517 43.3582 30.4128 40.6571 28.5667 38.54C27.3487 37.0807 26.5297 35.3306 26.1895 33.4605C25.8492 31.5904 25.9994 29.664 26.6254 27.8692C27.2513 26.0744 28.3317 24.4724 29.7612 23.2195C31.1906 21.9665 32.9204 21.1054 34.7817 20.72C36.3814 20.3907 38.0344 20.4216 39.6206 20.8107C41.2068 21.1998 42.6864 21.9372 43.9521 22.9694C45.2178 24.0017 46.2378 25.3028 46.938 26.7783C47.6381 28.2538 48.0009 29.8668 48.0001 31.5C48.0136 34.0114 47.1514 36.449 45.5617 38.3934Z" fill="white"/>
</svg>
