<svg width="74" height="74" viewBox="0 0 74 74" fill="none" xmlns="http://www.w3.org/2000/svg">
<circle cx="37" cy="37" r="37" fill="#EF3A01"/>
<path d="M53.5001 18.6667C53.0139 18.6667 52.5475 18.8598 52.2037 19.2037C51.8599 19.5475 51.6667 20.0138 51.6667 20.5V24.1667H48.0001V20.5C48.0001 20.0138 47.8069 19.5475 47.4631 19.2037C47.1193 18.8598 46.653 18.6667 46.1667 18.6667C45.6805 18.6667 45.2142 18.8598 44.8704 19.2037C44.5266 19.5475 44.3334 20.0138 44.3334 20.5V22.3334H29.6667V20.5C29.6667 20.0138 29.4736 19.5475 29.1298 19.2037C28.786 18.8598 28.3196 18.6667 27.8334 18.6667C27.3472 18.6667 26.8809 18.8598 26.5371 19.2037C26.1932 19.5475 26.0001 20.0138 26.0001 20.5V24.1667H22.3334V20.5C22.3334 20.0138 22.1403 19.5475 21.7964 19.2037C21.4526 18.8598 20.9863 18.6667 20.5001 18.6667C20.0139 18.6667 19.5475 18.8598 19.2037 19.2037C18.8599 19.5475 18.6667 20.0138 18.6667 20.5V53.5C18.6667 53.9863 18.8599 54.4526 19.2037 54.7964C19.5475 55.1402 20.0139 55.3334 20.5001 55.3334C20.9863 55.3334 21.4526 55.1402 21.7964 54.7964C22.1403 54.4526 22.3334 53.9863 22.3334 53.5V49.8334H26.0001V53.5C26.0001 53.9863 26.1932 54.4526 26.5371 54.7964C26.8809 55.1402 27.3472 55.3334 27.8334 55.3334C28.3196 55.3334 28.786 55.1402 29.1298 54.7964C29.4736 54.4526 29.6667 53.9863 29.6667 53.5V51.6667H44.3334V53.5C44.3334 53.9863 44.5266 54.4526 44.8704 54.7964C45.2142 55.1402 45.6805 55.3334 46.1667 55.3334C46.653 55.3334 47.1193 55.1402 47.4631 54.7964C47.8069 54.4526 48.0001 53.9863 48.0001 53.5V49.8334H51.6667V53.5C51.6667 53.9863 51.8599 54.4526 52.2037 54.7964C52.5475 55.1402 53.0139 55.3334 53.5001 55.3334C53.9863 55.3334 54.4526 55.1402 54.7964 54.7964C55.1403 54.4526 55.3334 53.9863 55.3334 53.5V20.5C55.3334 20.0138 55.1403 19.5475 54.7964 19.2037C54.4526 18.8598 53.9863 18.6667 53.5001 18.6667ZM26.0001 46.1667H22.3334V42.5H26.0001V46.1667ZM26.0001 38.8334H22.3334V35.1667H26.0001V38.8334ZM26.0001 31.5H22.3334V27.8334H26.0001V31.5ZM44.3334 48H29.6667V38.8334H44.3334V48ZM44.3334 35.1667H29.6667V26H44.3334V35.1667ZM51.6667 46.1667H48.0001V42.5H51.6667V46.1667ZM51.6667 38.8334H48.0001V35.1667H51.6667V38.8334ZM51.6667 31.5H48.0001V27.8334H51.6667V31.5Z" fill="white"/>
</svg>
