<svg width="74" height="74" viewBox="0 0 74 74" fill="none" xmlns="http://www.w3.org/2000/svg">
<circle cx="37" cy="37" r="37" fill="#EF3A01"/>
<path d="M54.8017 19.1983C54.6312 19.0265 54.4285 18.8901 54.2051 18.797C53.9817 18.704 53.742 18.656 53.5 18.656C53.258 18.656 53.0184 18.704 52.795 18.797C52.5715 18.8901 52.3688 19.0265 52.1983 19.1983L48.3117 23.085L47.01 21.8017C46.6665 21.4602 46.2019 21.2685 45.7175 21.2685C45.2332 21.2685 44.7685 21.4602 44.425 21.8017L41.84 24.3867L40.5383 23.085C40.3679 22.9132 40.1651 22.7768 39.9417 22.6837C39.7183 22.5906 39.4787 22.5427 39.2367 22.5427C38.9947 22.5427 38.755 22.5906 38.5316 22.6837C38.3082 22.7768 38.1054 22.9132 37.935 23.085L23.69 37.3483L22.3333 36.065C21.9775 35.8163 21.545 35.702 21.1127 35.7423C20.6805 35.7827 20.2766 35.9751 19.9729 36.2854C19.6693 36.5956 19.4856 37.0036 19.4545 37.4366C19.4235 37.8696 19.5471 38.2996 19.8033 38.65L26.275 45.14L23.1033 48.33L21.8017 47.01C21.4565 46.6648 20.9882 46.4708 20.5 46.4708C20.0118 46.4708 19.5436 46.6648 19.1983 47.01C18.8531 47.3552 18.6592 47.8234 18.6592 48.3117C18.6592 48.7999 18.8531 49.2681 19.1983 49.6133L24.3867 54.8017C24.558 54.9716 24.7612 55.106 24.9845 55.1973C25.2079 55.2885 25.4471 55.3347 25.6883 55.3333C25.9296 55.3347 26.1688 55.2885 26.3922 55.1973C26.6155 55.106 26.8187 54.9716 26.99 54.8017C27.1618 54.6312 27.2982 54.4285 27.3913 54.2051C27.4844 53.9817 27.5323 53.742 27.5323 53.5C27.5323 53.258 27.4844 53.0184 27.3913 52.7949C27.2982 52.5715 27.1618 52.3688 26.99 52.1983L25.6883 50.915L28.8783 47.725L35.35 54.1967C35.5198 54.3699 35.7223 54.5077 35.9457 54.6021C36.1692 54.6965 36.4091 54.7457 36.6517 54.7467C37.0143 54.7451 37.3683 54.6361 37.6689 54.4334C37.9695 54.2308 38.2033 53.9435 38.3407 53.6079C38.478 53.2723 38.5128 52.9036 38.4406 52.5483C38.3684 52.1929 38.1925 51.867 37.935 51.6117L36.6517 50.31L50.915 36.065C51.0868 35.8946 51.2232 35.6918 51.3163 35.4684C51.4094 35.245 51.4573 35.0054 51.4573 34.7633C51.4573 34.5213 51.4094 34.2817 51.3163 34.0583C51.2232 33.8349 51.0868 33.6321 50.915 33.4617L49.6133 32.16L52.1983 29.6667C52.5398 29.3232 52.7315 28.8585 52.7315 28.3742C52.7315 27.8898 52.5398 27.4252 52.1983 27.0817L50.915 25.78L54.8017 21.8933C54.9878 21.7217 55.1363 21.5133 55.2379 21.2814C55.3394 21.0495 55.3919 20.799 55.3919 20.5458C55.3919 20.2926 55.3394 20.0422 55.2379 19.8103C55.1363 19.5784 54.9878 19.37 54.8017 19.1983ZM28.8783 42.5L26.275 39.9517L28.86 37.3483L31.5 39.9517L28.8783 42.5ZM34.0483 47.6883L31.5 45.14L34.0483 42.5L36.6517 45.1033L34.0483 47.6883ZM39.2367 42.5L31.5 34.7633L39.2733 26.99L40.575 28.2733L47.0467 34.7633L39.2367 42.5ZM47.01 29.6667L44.425 26.99L45.7267 25.6883L47.01 26.9717L48.2933 28.255L47.01 29.6667Z" fill="white"/>
</svg>
