<svg width="74" height="74" viewBox="0 0 74 74" fill="none" xmlns="http://www.w3.org/2000/svg">
<circle cx="37" cy="37" r="37" fill="#EF3A01"/>
<path d="M56.4353 18.7803C56.3527 18.4662 56.1882 18.1796 55.9585 17.9499C55.7288 17.7202 55.4422 17.5557 55.1281 17.4732C51.3675 16.4966 47.4076 16.602 43.7042 17.7771C40.0009 18.9521 36.7047 21.1492 34.1951 24.1153L32.1491 26.5427L27.3751 25.3913C26.2141 24.9862 24.9458 25.015 23.8044 25.4723C22.663 25.9296 21.7257 26.7845 21.1656 27.8792L17.1323 35.0292C16.991 35.2795 16.9107 35.5596 16.8976 35.8467C16.8846 36.1338 16.9393 36.42 17.0572 36.6821C17.1752 36.9443 17.3531 37.175 17.5766 37.3557C17.8002 37.5364 18.0631 37.662 18.3441 37.7223L23.9779 38.9305C23.5009 40.3831 23.1602 41.877 22.9604 43.3928C22.9241 43.6711 22.9522 43.954 23.0425 44.2197C23.1327 44.4855 23.2828 44.7269 23.4811 44.9255L29.1644 50.6088C29.3349 50.7793 29.5372 50.9145 29.7599 51.0067C29.9827 51.0988 30.2214 51.1462 30.4624 51.146C30.5138 51.146 30.5669 51.1442 30.6201 51.1387C32.1702 50.9994 33.7014 50.6983 35.1888 50.2403L36.3694 55.7477C36.4298 56.0287 36.5554 56.2916 36.7361 56.5151C36.9168 56.7387 37.1475 56.9166 37.4096 57.0345C37.6717 57.1525 37.9579 57.2072 38.2451 57.1941C38.5322 57.1811 38.8122 57.1007 39.0626 56.9595L46.2218 52.9225C47.2296 52.3102 48.0169 51.3936 48.47 50.3049C48.923 49.2162 49.0185 48.0117 48.7426 46.8652L47.5179 41.8052L49.7858 39.7207C52.7626 37.2177 54.9677 33.921 56.1445 30.214C57.3214 26.5069 57.4215 22.542 56.4334 18.7803H56.4353ZM21.5488 34.6588L24.4014 29.5988C24.579 29.2556 24.881 28.9932 25.2457 28.8653C25.6104 28.7375 26.0101 28.754 26.3631 28.9113L29.5128 29.674L28.3211 31.0893C27.1909 32.4432 26.2133 33.9176 25.4061 35.4857L21.5488 34.6588ZM44.4104 49.7325L39.4329 52.5412L38.6446 48.8653C40.2411 48.0693 41.7286 47.0711 43.0703 45.8953L44.4324 44.6432L45.1731 47.6938C45.2689 48.0709 45.2472 48.4682 45.1109 48.8325C44.9746 49.1969 44.7302 49.5109 44.4104 49.7325ZM47.3713 36.9633L40.6154 43.171C37.9418 45.4831 34.644 46.9528 31.1371 47.395L26.7279 42.9877C27.32 39.4713 28.8396 36.1765 31.1298 33.4433L34.2079 29.7895C34.2591 29.7363 34.3068 29.68 34.3509 29.6208L36.9818 26.495C38.927 24.1976 41.4471 22.4576 44.2848 21.4527C47.1224 20.4478 50.1759 20.2139 53.1334 20.775C53.7079 23.7418 53.4763 26.8083 52.4629 29.6551C51.4494 32.502 49.6912 35.0251 47.3713 36.9615V36.9633ZM45.6791 25.6627C45.1352 25.6627 44.6035 25.8239 44.1513 26.1261C43.699 26.4283 43.3466 26.8578 43.1384 27.3603C42.9303 27.8628 42.8758 28.4157 42.9819 28.9492C43.0881 29.4826 43.35 29.9726 43.7346 30.3572C44.1192 30.7418 44.6092 31.0037 45.1426 31.1098C45.6761 31.2159 46.229 31.1615 46.7315 30.9533C47.234 30.7452 47.6635 30.3927 47.9656 29.9405C48.2678 29.4882 48.4291 28.9566 48.4291 28.4127C48.4291 27.6833 48.1394 26.9838 47.6236 26.4681C47.1079 25.9524 46.4084 25.6627 45.6791 25.6627Z" fill="white"/>
</svg>
