<svg width="74" height="74" viewBox="0 0 74 74" fill="none" xmlns="http://www.w3.org/2000/svg">
<circle cx="37" cy="37" r="37" fill="#EF3A01"/>
<path d="M52.4366 22.5533C52.2505 22.1053 51.8945 21.7494 51.4466 21.5633C51.2261 21.4694 50.9895 21.4196 50.7499 21.4167H43.4166C42.9303 21.4167 42.464 21.6098 42.1202 21.9536C41.7764 22.2974 41.5832 22.7638 41.5832 23.25C41.5832 23.7362 41.7764 24.2025 42.1202 24.5464C42.464 24.8902 42.9303 25.0833 43.4166 25.0833H46.3316L41.9316 29.4833C39.3336 27.539 36.0955 26.651 32.8691 26.9982C29.6427 27.3453 26.6676 28.9018 24.5428 31.3544C22.4179 33.8069 21.301 36.9733 21.4169 40.2163C21.5328 43.4592 22.8729 46.5378 25.1675 48.8324C27.4621 51.1269 30.5407 52.4671 33.7836 52.583C37.0265 52.6989 40.193 51.582 42.6455 49.4571C45.098 47.3322 46.6546 44.3572 47.0017 41.1308C47.3489 37.9044 46.4609 34.6663 44.5166 32.0683L48.9166 27.6683V30.5833C48.9166 31.0696 49.1097 31.5359 49.4535 31.8797C49.7973 32.2235 50.2637 32.4167 50.7499 32.4167C51.2361 32.4167 51.7024 32.2235 52.0462 31.8797C52.3901 31.5359 52.5832 31.0696 52.5832 30.5833V23.25C52.5803 23.0104 52.5305 22.7737 52.4366 22.5533ZM40.6666 46.1667C39.392 47.467 37.7591 48.3583 35.976 48.7269C34.1928 49.0955 32.3404 48.9247 30.6547 48.2363C28.969 47.548 27.5266 46.3732 26.5112 44.8618C25.4958 43.3503 24.9536 41.5708 24.9536 39.75C24.9536 37.9292 25.4958 36.1496 26.5112 34.6382C27.5266 33.1268 28.969 31.952 30.6547 31.2637C32.3404 30.5753 34.1928 30.4045 35.976 30.7731C37.7591 31.1417 39.392 32.033 40.6666 33.3333C42.3461 35.0468 43.2869 37.3506 43.2869 39.75C43.2869 42.1494 42.3461 44.4531 40.6666 46.1667Z" fill="white"/>
</svg>
