<svg width="74" height="74" viewBox="0 0 74 74" fill="none" xmlns="http://www.w3.org/2000/svg">
<circle cx="37" cy="37" r="37" fill="#EF3A01"/>
<path d="M55.3332 32.7284C55.2174 32.393 55.0068 32.0985 54.727 31.8804C54.4471 31.6624 54.11 31.5303 53.7565 31.5L43.3249 29.9784L38.6499 20.5C38.4998 20.1901 38.2654 19.9286 37.9735 19.7457C37.6817 19.5628 37.3443 19.4658 36.9999 19.4658C36.6555 19.4658 36.318 19.5628 36.0262 19.7457C35.7344 19.9286 35.5 20.1901 35.3499 20.5L30.6749 29.96L20.2432 31.5C19.9039 31.5482 19.5849 31.6906 19.3224 31.911C19.0599 32.1313 18.8645 32.4209 18.7582 32.7467C18.6609 33.0651 18.6522 33.404 18.733 33.727C18.8137 34.0499 18.9809 34.3449 19.2165 34.58L26.7882 41.9134L24.9549 52.3267C24.8809 52.6721 24.9082 53.0316 25.0337 53.3619C25.1591 53.6921 25.3773 53.9791 25.662 54.1882C25.9468 54.3974 26.2858 54.5199 26.6385 54.5409C26.9911 54.5619 27.3424 54.4806 27.6499 54.3067L36.9999 49.4117L46.3499 54.3067C46.6072 54.4518 46.8978 54.5277 47.1932 54.5267C47.5816 54.5281 47.9603 54.4061 48.2749 54.1784C48.5593 53.9746 48.7795 53.6937 48.9094 53.3688C49.0394 53.044 49.0737 52.6887 49.0082 52.345L47.1749 41.9317L54.7465 34.5984C55.0112 34.3741 55.2069 34.0793 55.3107 33.7483C55.4146 33.4173 55.4224 33.0636 55.3332 32.7284ZM44.0582 40.0617C43.846 40.2678 43.6868 40.5221 43.5943 40.8031C43.5017 41.084 43.4784 41.3832 43.5265 41.675L44.8465 49.375L37.9532 45.7084C37.6853 45.5758 37.3904 45.5069 37.0915 45.5069C36.7927 45.5069 36.4978 45.5758 36.2299 45.7084L29.3365 49.375L30.6565 41.675C30.7046 41.3832 30.6814 41.084 30.5888 40.8031C30.4963 40.5221 30.3371 40.2678 30.1249 40.0617L24.6249 34.5617L32.3432 33.4434C32.6402 33.402 32.9225 33.2885 33.1655 33.1127C33.4084 32.9369 33.6045 32.7042 33.7365 32.435L36.9999 25.45L40.4465 32.4534C40.5786 32.7226 40.7747 32.9553 41.0176 33.1311C41.2606 33.3068 41.5429 33.4204 41.8399 33.4617L49.5582 34.58L44.0582 40.0617Z" fill="white"/>
</svg>
