<svg width="74" height="74" viewBox="0 0 74 74" fill="none" xmlns="http://www.w3.org/2000/svg">
<circle cx="37" cy="37" r="37" fill="#EF3A01"/>
<path d="M30.5247 30.3908L30.521 30.3927L30.5155 30.3963L30.5247 30.3908ZM48.7737 30.048C48.6461 29.925 48.5046 29.8173 48.352 29.7272C48.1359 29.6 47.8961 29.5184 47.6473 29.4876C47.3985 29.4568 47.146 29.4773 46.9054 29.5479C46.6649 29.6186 46.4414 29.7378 46.2487 29.8982C46.056 30.0586 45.8983 30.2569 45.7853 30.4807C45.1539 31.7254 44.2829 32.8331 43.2223 33.7403C43.3849 32.8265 43.4671 31.9002 43.468 30.972C43.4715 28.1489 42.7268 25.3753 41.3099 22.9336C39.8929 20.4919 37.8542 18.4693 35.4013 17.0717C35.131 16.9181 34.8261 16.8358 34.5152 16.8324C34.2044 16.8291 33.8978 16.9049 33.6243 17.0527C33.3507 17.2004 33.1193 17.4153 32.9516 17.6771C32.784 17.9389 32.6857 18.2391 32.666 18.5493C32.5633 20.2875 32.1089 21.9868 31.3302 23.5442C30.5515 25.1015 29.4648 26.4846 28.1358 27.6097L27.7142 27.9525C26.3238 28.888 25.0931 30.0412 24.0695 31.368C22.4787 33.372 21.3767 35.7192 20.8509 38.2233C20.3252 40.7274 20.3901 43.3195 21.0406 45.7942C21.6911 48.2688 22.9093 50.5578 24.5985 52.4797C26.2877 54.4015 28.4015 55.9033 30.7722 56.866C31.0505 56.9793 31.3524 57.0224 31.6513 56.9916C31.9503 56.9608 32.237 56.857 32.4864 56.6893C32.7358 56.5216 32.9401 56.2952 33.0814 56.0299C33.2227 55.7647 33.2966 55.4688 33.2967 55.1683C33.2951 54.9741 33.2642 54.7813 33.205 54.5963C32.7948 53.0546 32.6767 51.4497 32.8567 49.8645C34.5919 53.1362 37.3768 55.7294 40.7638 57.2272C41.1771 57.4119 41.6442 57.4367 42.0747 57.2968C44.7504 56.4331 47.1608 54.8995 49.0769 52.8419C50.993 50.7842 52.3513 48.2708 53.0225 45.5404C53.6937 42.8101 53.6557 39.9534 52.9121 37.2419C52.1684 34.5303 50.7439 32.054 48.7737 30.048ZM41.6145 53.5715C40.0164 52.7617 38.6065 51.6247 37.4767 50.2342C36.3469 48.8438 35.5223 47.2312 35.0567 45.5012C34.9143 44.9186 34.8041 44.3286 34.7267 43.7338C34.6745 43.3551 34.5052 43.0022 34.2426 42.7244C33.9799 42.4467 33.637 42.2579 33.2618 42.1847C33.1465 42.1623 33.0292 42.1512 32.9117 42.1517C32.5895 42.1514 32.273 42.2359 31.994 42.3968C31.7149 42.5578 31.4832 42.7894 31.3222 43.0683C29.8013 45.6923 29.0367 48.6861 29.113 51.718C27.7749 50.678 26.6566 49.3827 25.8229 47.9072C24.9892 46.4318 24.4566 44.8055 24.2561 43.1227C24.0555 41.4399 24.191 39.734 24.6546 38.1039C25.1183 36.4739 25.9008 34.952 26.957 33.6267C27.7589 32.585 28.7263 31.682 29.8207 30.9537C29.8685 30.923 29.9145 30.8893 29.9582 30.8528C29.9582 30.8528 30.5008 30.4037 30.5192 30.3945C33.132 28.1854 34.9906 25.2162 35.8358 21.9007C37.8331 23.7475 39.1647 26.2021 39.6239 28.8834C40.083 31.5647 39.644 34.3225 38.375 36.7287C38.2071 37.0498 38.1381 37.4136 38.1768 37.7739C38.2154 38.1343 38.3601 38.4751 38.5923 38.7533C38.8246 39.0314 39.1342 39.2345 39.4818 39.3369C39.8295 39.4393 40.1997 39.4363 40.5457 39.3283C43.3538 38.4476 45.8248 36.7278 47.626 34.4003C48.7089 35.9994 49.417 37.8223 49.6974 39.7332C49.9778 41.644 49.8233 43.5934 49.2455 45.4363C48.6676 47.2791 47.6813 48.9677 46.36 50.3763C45.0388 51.7849 43.4166 52.8771 41.6145 53.5715Z" fill="white"/>
</svg>
