<svg width="74" height="74" viewBox="0 0 74 74" fill="none" xmlns="http://www.w3.org/2000/svg">
<circle cx="37" cy="37" r="37" fill="#EF3A01"/>
<path d="M51.8684 47.065L42.5001 31.005V22.3334H44.3334C44.8197 22.3334 45.286 22.1402 45.6298 21.7964C45.9736 21.4526 46.1668 20.9863 46.1668 20.5C46.1668 20.0138 45.9736 19.5475 45.6298 19.2037C45.286 18.8598 44.8197 18.6667 44.3334 18.6667H29.6668C29.1805 18.6667 28.7142 18.8598 28.3704 19.2037C28.0266 19.5475 27.8334 20.0138 27.8334 20.5C27.8334 20.9863 28.0266 21.4526 28.3704 21.7964C28.7142 22.1402 29.1805 22.3334 29.6668 22.3334H31.5001V31.005L22.1318 47.065C21.6451 47.9005 21.3873 48.8495 21.3843 49.8164C21.3813 50.7833 21.6333 51.7339 22.1148 52.5724C22.5963 53.4108 23.2904 54.1075 24.127 54.5923C24.9636 55.077 25.9132 55.3326 26.8801 55.3334H47.0468C48.0137 55.3326 48.9633 55.077 49.7999 54.5923C50.6365 54.1075 51.3306 53.4108 51.8121 52.5724C52.2936 51.7339 52.5455 50.7833 52.5426 49.8164C52.5396 48.8495 52.2818 47.9005 51.7951 47.065H51.8684ZM34.9101 32.3984C35.0718 32.1261 35.1602 31.8166 35.1668 31.5V22.3334H38.8334V31.5C38.8368 31.8228 38.9253 32.1391 39.0901 32.4167L40.6668 35.1667H33.3334L34.9101 32.3984ZM48.6968 50.7317C48.5368 51.0088 48.3071 51.2392 48.0305 51.4C47.7539 51.5608 47.44 51.6464 47.1201 51.6484H26.9534C26.6335 51.6464 26.3196 51.5608 26.043 51.4C25.7664 51.2392 25.5367 51.0088 25.3768 50.7317C25.2159 50.453 25.1312 50.1368 25.1312 49.815C25.1312 49.4932 25.2159 49.1771 25.3768 48.8984L31.1884 38.8334H42.8301L48.6968 48.9167C48.8577 49.1954 48.9424 49.5115 48.9424 49.8334C48.9424 50.1552 48.8577 50.4713 48.6968 50.75V50.7317ZM33.3334 42.5C32.9708 42.5 32.6164 42.6075 32.3149 42.809C32.0134 43.0104 31.7784 43.2968 31.6397 43.6318C31.5009 43.9668 31.4646 44.3354 31.5353 44.691C31.6061 45.0467 31.7807 45.3733 32.0371 45.6297C32.2935 45.8861 32.6201 46.0607 32.9758 46.1315C33.3314 46.2022 33.7 46.1659 34.035 46.0271C34.37 45.8884 34.6563 45.6534 34.8578 45.3519C35.0592 45.0504 35.1668 44.696 35.1668 44.3334C35.1668 43.8471 34.9736 43.3808 34.6298 43.037C34.286 42.6932 33.8197 42.5 33.3334 42.5ZM40.6668 44.3334C40.3042 44.3334 39.9497 44.4409 39.6482 44.6423C39.3467 44.8438 39.1118 45.1301 38.973 45.4651C38.8342 45.8001 38.7979 46.1687 38.8687 46.5244C38.9394 46.88 39.114 47.2067 39.3704 47.4631C39.6268 47.7194 39.9535 47.8941 40.3091 47.9648C40.6647 48.0355 41.0334 47.9992 41.3684 47.8605C41.7034 47.7217 41.9897 47.4867 42.1911 47.1852C42.3926 46.8837 42.5001 46.5293 42.5001 46.1667C42.5001 45.6805 42.3069 45.2141 41.9631 44.8703C41.6193 44.5265 41.153 44.3334 40.6668 44.3334Z" fill="white"/>
</svg>
