<svg width="74" height="74" viewBox="0 0 74 74" fill="none" xmlns="http://www.w3.org/2000/svg">
<circle cx="37" cy="37" r="37" fill="#EF3A01"/>
<path d="M37 18.6667C33.9342 18.6698 30.9181 19.4418 28.2277 20.9119C25.5374 22.3819 23.2586 24.5033 21.6 27.0817C19.2672 30.7402 18.3076 35.1075 18.8919 39.407C19.4761 43.7064 21.5663 47.6593 24.7908 50.5627C28.0153 53.466 32.165 55.1316 36.502 55.2633C40.8389 55.3949 45.082 53.9841 48.4767 51.2817C51.4312 48.9036 53.5754 45.6677 54.6139 42.02C55.6524 38.3723 55.534 34.4922 54.2751 30.9146C53.0162 27.3369 50.6787 24.2378 47.5848 22.0442C44.4908 19.8506 40.7927 18.6706 37 18.6667ZM40.6667 22.81C43.2 23.4658 45.5118 24.7874 47.3622 26.6378C49.2126 28.4882 50.5342 30.8 51.19 33.3334C48.1246 33.4197 45.1327 34.2908 42.5 35.8634C41.178 34.3637 39.7034 33.0058 38.1 31.8117C39.7154 29.0818 40.5995 25.9814 40.6667 22.81ZM37 22.3334C36.994 24.9642 36.2714 27.5438 34.91 29.795C34.635 29.6484 34.3783 29.4834 34.1033 29.355C31.7427 28.1094 29.2185 27.2022 26.605 26.66C27.9673 25.2896 29.5869 24.2019 31.3708 23.4594C33.1547 22.7169 35.0677 22.3342 37 22.3334ZM24.1667 29.96C27.0421 30.3595 29.8269 31.2526 32.3983 32.6L32.6367 32.7467C31.2835 34.0986 29.6769 35.1702 27.9088 35.9C26.1408 36.6299 24.2461 37.0037 22.3333 37C22.3435 34.5366 22.974 32.1155 24.1667 29.96ZM33.3333 51.19C30.8 50.5343 28.4882 49.2126 26.6378 47.3622C24.7874 45.5118 23.4658 43.2 22.81 40.6667C25.2587 40.6123 27.6711 40.0629 29.9018 39.0515C32.1325 38.0401 34.1355 36.5877 35.79 34.7817C37.1153 35.7614 38.3432 36.8665 39.4567 38.0817C37.6002 39.737 36.0999 41.7527 35.0473 44.0063C33.9946 46.2598 33.4114 48.704 33.3333 51.19ZM37 51.6667C37.004 49.6525 37.4227 47.6608 38.2302 45.8156C39.0377 43.9704 40.2165 42.3113 41.6933 40.9417C41.8033 41.0884 41.9133 41.2167 42.005 41.3634C43.5413 43.7159 44.6809 46.3048 45.3783 49.0267C42.9246 50.7495 39.9982 51.6717 37 51.6667ZM48.385 46.1667C47.5889 43.7412 46.4795 41.43 45.085 39.2917L44.7 38.8334C46.8317 37.6475 49.2274 37.017 51.6667 37C51.6485 40.3401 50.4908 43.5739 48.385 46.1667Z" fill="white"/>
</svg>
