<svg width="74" height="74" viewBox="0 0 74 74" fill="none" xmlns="http://www.w3.org/2000/svg">
<circle cx="37" cy="37" r="37" fill="#EF3A01"/>
<path d="M54.8016 26.9717L52.1983 24.3867L54.8016 21.8017C55.1468 21.4565 55.3408 20.9882 55.3408 20.5C55.3408 20.0118 55.1468 19.5436 54.8016 19.1983C54.4564 18.8531 53.9882 18.6592 53.4999 18.6592C53.0117 18.6592 52.5435 18.8531 52.1983 19.1983L32.8749 38.5217C30.9793 37.271 28.687 36.7686 26.4421 37.1116C24.1972 37.4547 22.1595 38.6189 20.7239 40.3786C19.2884 42.1383 18.5571 44.3682 18.6719 46.6363C18.7866 48.9044 19.7392 51.0491 21.345 52.6549C22.9508 54.2608 25.0956 55.2133 27.3637 55.3281C29.6318 55.4428 31.8617 54.7116 33.6214 53.276C35.3811 51.8404 36.5452 49.8028 36.8883 47.5579C37.2314 45.313 36.7289 43.0206 35.4783 41.125L44.4249 32.16L47.0099 34.7633C47.1812 34.9333 47.3844 35.0677 47.6078 35.1589C47.8311 35.2502 48.0703 35.2964 48.3116 35.295C48.5529 35.2964 48.7921 35.2502 49.0154 35.1589C49.2388 35.0677 49.442 34.9333 49.6133 34.7633C49.7851 34.5929 49.9215 34.3901 50.0146 34.1667C50.1076 33.9433 50.1556 33.7037 50.1556 33.4617C50.1556 33.2197 50.1076 32.98 50.0146 32.7566C49.9215 32.5332 49.7851 32.3304 49.6133 32.16L47.0099 29.6667L49.6133 27.0633L52.1983 29.6667C52.3696 29.8366 52.5727 29.971 52.7961 30.0623C53.0195 30.1535 53.2587 30.1997 53.4999 30.1983C53.7412 30.1997 53.9804 30.1535 54.2038 30.0623C54.4271 29.971 54.6303 29.8366 54.8016 29.6667C54.9877 29.495 55.1362 29.2866 55.2378 29.0547C55.3394 28.8228 55.3918 28.5724 55.3918 28.3192C55.3918 28.066 55.3394 27.8156 55.2378 27.5836C55.1362 27.3517 54.9877 27.1434 54.8016 26.9717ZM27.8333 51.6667C26.7455 51.6667 25.6821 51.3441 24.7776 50.7398C23.8732 50.1354 23.1682 49.2764 22.7519 48.2714C22.3356 47.2664 22.2267 46.1606 22.4389 45.0937C22.6512 44.0268 23.175 43.0468 23.9442 42.2776C24.7134 41.5084 25.6934 40.9846 26.7603 40.7724C27.8272 40.5601 28.933 40.6691 29.938 41.0853C30.943 41.5016 31.802 42.2066 32.4063 43.111C33.0107 44.0155 33.3333 45.0789 33.3333 46.1667C33.3333 47.6254 32.7538 49.0243 31.7224 50.0558C30.6909 51.0872 29.292 51.6667 27.8333 51.6667Z" fill="white"/>
</svg>
