<svg width="74" height="74" viewBox="0 0 74 74" fill="none" xmlns="http://www.w3.org/2000/svg">
<circle cx="37" cy="37" r="37" fill="#EF3A01"/>
<path d="M53.2616 46.625L48.2933 38.045C49.31 36.1778 49.8396 34.0844 49.8333 31.9583C49.8333 28.5547 48.4812 25.2905 46.0745 22.8838C43.6678 20.4771 40.4036 19.125 37 19.125C33.5964 19.125 30.3322 20.4771 27.9254 22.8838C25.5187 25.2905 24.1666 28.5547 24.1666 31.9583C24.1603 34.0844 24.69 36.1778 25.7066 38.045L20.7383 46.625C20.5771 46.9042 20.4924 47.2211 20.4927 47.5435C20.493 47.8659 20.5783 48.1826 20.7401 48.4615C20.9019 48.7404 21.1344 48.9717 21.4141 49.1321C21.6938 49.2925 22.0109 49.3763 22.3333 49.375H27.595L30.2716 53.885C30.3619 54.0345 30.473 54.1703 30.6016 54.2883C30.9415 54.6159 31.3946 54.7998 31.8666 54.8017H32.1233C32.4001 54.7638 32.6645 54.6632 32.8965 54.5075C33.1284 54.3518 33.3217 54.1451 33.4616 53.9033L37 47.8167L40.5383 53.9583C40.6803 54.1967 40.8745 54.3998 41.1063 54.5522C41.3381 54.7047 41.6015 54.8025 41.8766 54.8383H42.1333C42.6117 54.8412 43.0722 54.657 43.4166 54.325C43.5399 54.2137 43.6451 54.0838 43.7283 53.94L46.405 49.43H51.6666C51.9897 49.4313 52.3073 49.3472 52.5874 49.1862C52.8675 49.0252 53.1001 48.7931 53.2616 48.5133C53.433 48.2282 53.5235 47.9018 53.5235 47.5692C53.5235 47.2365 53.433 46.9101 53.2616 46.625ZM31.8483 49.43L30.2166 46.6983C30.056 46.4273 29.8282 46.2023 29.5552 46.0449C29.2823 45.8876 28.9734 45.8032 28.6583 45.8H25.4866L28.1083 41.2533C29.9136 42.9929 32.189 44.1657 34.6533 44.6267L31.8483 49.43ZM37 41.125C35.187 41.125 33.4147 40.5874 31.9072 39.5801C30.3998 38.5729 29.2249 37.1413 28.5311 35.4663C27.8373 33.7913 27.6557 31.9482 28.0094 30.17C28.3631 28.3918 29.2362 26.7585 30.5182 25.4765C31.8001 24.1945 33.4335 23.3215 35.2116 22.9678C36.9898 22.6141 38.8329 22.7956 40.5079 23.4894C42.1829 24.1832 43.6145 25.3582 44.6218 26.8656C45.629 28.3731 46.1666 30.1453 46.1666 31.9583C46.1666 34.3895 45.2009 36.7211 43.4818 38.4401C41.7627 40.1592 39.4311 41.125 37 41.125ZM45.3416 45.8C45.0266 45.8032 44.7177 45.8876 44.4447 46.0449C44.1718 46.2023 43.944 46.4273 43.7833 46.6983L42.1516 49.43L39.365 44.5717C41.8207 44.1012 44.0876 42.9296 45.8916 41.1983L48.5133 45.745L45.3416 45.8Z" fill="white"/>
</svg>
