<svg width="74" height="74" viewBox="0 0 74 74" fill="none" xmlns="http://www.w3.org/2000/svg">
<circle cx="37" cy="37" r="37" fill="#EF3A01"/>
<path d="M31.5001 46.1667H38.8334C41.2646 46.1667 43.5961 45.2009 45.3152 43.4818C47.0343 41.7627 48.0001 39.4312 48.0001 37V35.1667H49.8334C51.2921 35.1667 52.6911 34.5872 53.7225 33.5558C54.754 32.5243 55.3334 31.1254 55.3334 29.6667C55.3334 28.208 54.754 26.809 53.7225 25.7776C52.6911 24.7461 51.2921 24.1667 49.8334 24.1667H48.0001V22.3333C48.0001 21.8471 47.8069 21.3808 47.4631 21.037C47.1193 20.6932 46.653 20.5 46.1667 20.5H24.1667C23.6805 20.5 23.2142 20.6932 22.8704 21.037C22.5266 21.3808 22.3334 21.8471 22.3334 22.3333V37C22.3334 39.4312 23.2992 41.7627 25.0183 43.4818C26.7374 45.2009 29.0689 46.1667 31.5001 46.1667ZM48.0001 27.8333H49.8334C50.3196 27.8333 50.786 28.0265 51.1298 28.3703C51.4736 28.7141 51.6667 29.1804 51.6667 29.6667C51.6667 30.1529 51.4736 30.6192 51.1298 30.963C50.786 31.3068 50.3196 31.5 49.8334 31.5H48.0001V27.8333ZM26.0001 24.1667H44.3334V37C44.3334 38.4587 43.754 39.8576 42.7225 40.8891C41.6911 41.9205 40.2921 42.5 38.8334 42.5H31.5001C30.0414 42.5 28.6424 41.9205 27.611 40.8891C26.5795 39.8576 26.0001 38.4587 26.0001 37V24.1667ZM53.5001 49.8333H20.5001C20.0139 49.8333 19.5475 50.0265 19.2037 50.3703C18.8599 50.7141 18.6667 51.1804 18.6667 51.6667C18.6667 52.1529 18.8599 52.6192 19.2037 52.963C19.5475 53.3068 20.0139 53.5 20.5001 53.5H53.5001C53.9863 53.5 54.4526 53.3068 54.7964 52.963C55.1403 52.6192 55.3334 52.1529 55.3334 51.6667C55.3334 51.1804 55.1403 50.7141 54.7964 50.3703C54.4526 50.0265 53.9863 49.8333 53.5001 49.8333Z" fill="white"/>
</svg>
