<svg width="74" height="74" viewBox="0 0 74 74" fill="none" xmlns="http://www.w3.org/2000/svg">
<circle cx="37" cy="37" r="37" fill="#EF3A01"/>
<path d="M51.9599 26.3056C50.0165 24.3572 47.4403 23.1679 44.6968 22.9528C41.9533 22.7376 39.2233 23.5106 36.9999 25.1323C34.6672 23.3973 31.7638 22.6106 28.8744 22.9305C25.9849 23.2505 23.324 24.6534 21.4275 26.8567C19.5309 29.06 18.5397 31.9001 18.6533 34.805C18.767 37.7099 19.977 40.4638 22.0399 42.5123L33.4249 53.9156C34.3782 54.8539 35.6622 55.3797 36.9999 55.3797C38.3375 55.3797 39.6215 54.8539 40.5749 53.9156L51.9599 42.5123C54.1004 40.3586 55.3019 37.4455 55.3019 34.409C55.3019 31.3725 54.1004 28.4593 51.9599 26.3056ZM49.3749 39.9823L37.9899 51.3673C37.8603 51.4981 37.7061 51.6019 37.5362 51.6728C37.3663 51.7437 37.184 51.7802 36.9999 51.7802C36.8157 51.7802 36.6335 51.7437 36.4635 51.6728C36.2936 51.6019 36.1394 51.4981 36.0099 51.3673L24.6249 39.9273C23.1871 38.4576 22.382 36.4833 22.382 34.4273C22.382 32.3713 23.1871 30.397 24.6249 28.9273C26.09 27.4808 28.066 26.6697 30.1249 26.6697C32.1837 26.6697 34.1597 27.4808 35.6249 28.9273C35.7953 29.0991 35.9981 29.2355 36.2215 29.3286C36.4449 29.4217 36.6845 29.4696 36.9265 29.4696C37.1685 29.4696 37.4082 29.4217 37.6316 29.3286C37.855 29.2355 38.0578 29.0991 38.2282 28.9273C39.6933 27.4808 41.6693 26.6697 43.7282 26.6697C45.7871 26.6697 47.7631 27.4808 49.2282 28.9273C50.6857 30.3777 51.5173 32.3413 51.5447 34.3974C51.5721 36.4535 50.7932 38.4385 49.3749 39.9273V39.9823Z" fill="white"/>
</svg>
