<svg width="74" height="74" viewBox="0 0 74 74" fill="none" xmlns="http://www.w3.org/2000/svg">
<circle cx="37" cy="37" r="37" fill="#EF3A01"/>
<path d="M50.64 24.79L50.53 24.6617C48.8123 22.783 46.7221 21.2827 44.3927 20.2563C42.0633 19.2298 39.5456 18.6997 37 18.6997C34.4545 18.6997 31.9368 19.2298 29.6074 20.2563C27.2779 21.2827 25.1878 22.783 23.47 24.6617L23.36 24.79C21.3722 27.0034 19.9529 29.6674 19.2246 32.5519C18.4963 35.4364 18.4809 38.4548 19.1798 41.3466C19.8786 44.2384 21.2707 46.9166 23.2359 49.1502C25.2011 51.3838 27.6803 53.1055 30.4596 54.1669C33.2389 55.2282 36.2347 55.5973 39.1885 55.2422C42.1422 54.887 44.9652 53.8184 47.4137 52.1286C49.8622 50.4387 51.8627 48.1784 53.2425 45.5426C54.6222 42.9069 55.3399 39.975 55.3334 37C55.3357 32.4891 53.6632 28.138 50.64 24.79ZM37 22.3333C39.4772 22.3268 41.9143 22.9582 44.0767 24.1667H29.9234C32.0858 22.9582 34.5229 22.3268 37 22.3333ZM25.56 27.8333H48.44C50.1292 29.9454 51.2015 32.4833 51.5384 35.1667H22.4617C22.7986 32.4833 23.8709 29.9454 25.56 27.8333ZM37 51.6667C33.43 51.6634 29.9837 50.3582 27.3073 47.9956C24.6308 45.633 22.908 42.3754 22.4617 38.8333H51.5384C51.0921 42.3754 49.3693 45.633 46.6928 47.9956C44.0164 50.3582 40.5701 51.6634 37 51.6667ZM29.6667 29.6667C29.3041 29.6667 28.9496 29.7742 28.6482 29.9756C28.3467 30.1771 28.1117 30.4634 27.9729 30.7984C27.8342 31.1334 27.7979 31.502 27.8686 31.8577C27.9393 32.2133 28.1139 32.54 28.3703 32.7964C28.6267 33.0528 28.9534 33.2274 29.309 33.2981C29.6647 33.3688 30.0333 33.3325 30.3683 33.1938C30.7033 33.055 30.9896 32.82 31.1911 32.5185C31.3925 32.2171 31.5 31.8626 31.5 31.5C31.5 31.0138 31.3069 30.5475 30.9631 30.2036C30.6193 29.8598 30.1529 29.6667 29.6667 29.6667ZM40.6667 29.6667C40.3041 29.6667 39.9496 29.7742 39.6482 29.9756C39.3467 30.1771 39.1117 30.4634 38.9729 30.7984C38.8342 31.1334 38.7979 31.502 38.8686 31.8577C38.9393 32.2133 39.1139 32.54 39.3703 32.7964C39.6267 33.0528 39.9534 33.2274 40.309 33.2981C40.6647 33.3688 41.0333 33.3325 41.3683 33.1938C41.7033 33.055 41.9896 32.82 42.1911 32.5185C42.3925 32.2171 42.5 31.8626 42.5 31.5C42.5 31.0138 42.3069 30.5475 41.9631 30.2036C41.6192 29.8598 41.1529 29.6667 40.6667 29.6667ZM35.1667 47.8717C35.4407 48.027 35.7501 48.109 36.065 48.11C36.3899 48.1094 36.7088 48.0226 36.989 47.8583C37.2693 47.694 37.5009 47.4582 37.66 47.175C38.1374 46.3104 38.8386 45.5903 39.6903 45.0903C40.5419 44.5903 41.5125 44.3288 42.5 44.3333C42.9863 44.3333 43.4526 44.1402 43.7964 43.7964C44.1402 43.4525 44.3334 42.9862 44.3334 42.5C44.3334 42.0138 44.1402 41.5475 43.7964 41.2036C43.4526 40.8598 42.9863 40.6667 42.5 40.6667C40.8659 40.6666 39.2614 41.1034 37.8528 41.9318C36.4441 42.7602 35.2826 43.9501 34.4884 45.3783C34.2494 45.7993 34.1865 46.2977 34.3136 46.7648C34.4407 47.2319 34.7474 47.6298 35.1667 47.8717Z" fill="white"/>
</svg>
