<svg width="74" height="74" viewBox="0 0 74 74" fill="none" xmlns="http://www.w3.org/2000/svg">
<circle cx="37" cy="37" r="37" fill="#EF3A01"/>
<path d="M35.1667 20.5C31.7631 20.5 28.4988 21.8521 26.0921 24.2588C23.6854 26.6655 22.3333 29.9297 22.3333 33.3333C22.3333 33.8195 22.5265 34.2859 22.8703 34.6297C23.2141 34.9735 23.6804 35.1666 24.1667 35.1666C24.6529 35.1666 25.1192 34.9735 25.463 34.6297C25.8068 34.2859 26 33.8195 26 33.3333C26 30.9022 26.9658 28.5706 28.6849 26.8515C30.4039 25.1324 32.7355 24.1666 35.1667 24.1666C37.5978 24.1666 39.9294 25.1324 41.6485 26.8515C43.3676 28.5706 44.3333 30.9022 44.3333 33.3333C44.3276 34.9919 43.8782 36.6187 43.0317 38.045L36.505 51.6666C36.1835 52.2235 35.7212 52.686 35.1645 53.0078C34.6079 53.3296 33.9763 53.4993 33.3333 53.5C32.3609 53.5 31.4282 53.1137 30.7406 52.426C30.053 51.7384 29.6667 50.8058 29.6667 49.8333C29.6667 49.3471 29.4735 48.8808 29.1297 48.537C28.7859 48.1931 28.3196 48 27.8333 48C27.3471 48 26.8808 48.1931 26.537 48.537C26.1932 48.8808 26 49.3471 26 49.8333C26 51.7782 26.7726 53.6435 28.1479 55.0188C29.5232 56.394 31.3884 57.1666 33.3333 57.1666C34.6445 57.1655 35.9313 56.8128 37.0599 56.1453C38.1884 55.4779 39.1174 54.5201 39.75 53.3717L46.2767 39.75C47.4101 37.8018 48.0049 35.5872 48 33.3333C48 29.9297 46.6479 26.6655 44.2412 24.2588C41.8345 21.8521 38.5703 20.5 35.1667 20.5ZM22.3333 42.5C21.9707 42.5 21.6163 42.6075 21.3148 42.809C21.0133 43.0104 20.7783 43.2967 20.6396 43.6317C20.5008 43.9667 20.4645 44.3354 20.5352 44.691C20.606 45.0466 20.7806 45.3733 21.037 45.6297C21.2934 45.8861 21.62 46.0607 21.9757 46.1314C22.3313 46.2022 22.6999 46.1659 23.0349 46.0271C23.3699 45.8883 23.6562 45.6534 23.8577 45.3519C24.0591 45.0504 24.1667 44.6959 24.1667 44.3333C24.1667 43.8471 23.9735 43.3808 23.6297 43.037C23.2859 42.6931 22.8196 42.5 22.3333 42.5ZM47.2483 17.2C47.0557 17.0555 46.8366 16.9504 46.6033 16.8907C46.3701 16.8309 46.1274 16.8177 45.8891 16.8517C45.6507 16.8858 45.4214 16.9664 45.2143 17.0891C45.0071 17.2118 44.8261 17.374 44.6817 17.5666C44.5372 17.7593 44.4321 17.9784 44.3724 18.2116C44.3126 18.4449 44.2994 18.6876 44.3334 18.9259C44.3675 19.1643 44.4481 19.3936 44.5708 19.6007C44.6935 19.8079 44.8557 19.9889 45.0483 20.1333C47.1009 21.6683 48.7677 23.6604 49.9165 25.9516C51.0653 28.2429 51.6645 30.7702 51.6667 33.3333C51.6667 33.8195 51.8598 34.2859 52.2036 34.6297C52.5475 34.9735 53.0138 35.1666 53.5 35.1666C53.9862 35.1666 54.4525 34.9735 54.7964 34.6297C55.1402 34.2859 55.3333 33.8195 55.3333 33.3333C55.3227 30.2025 54.5872 27.1167 53.1845 24.3176C51.7818 21.5186 49.75 19.0824 47.2483 17.2ZM35.1667 31.5C35.6529 31.5 36.1192 31.6931 36.463 32.037C36.8068 32.3808 37 32.8471 37 33.3333C37 33.8195 37.1932 34.2859 37.537 34.6297C37.8808 34.9735 38.3471 35.1666 38.8333 35.1666C39.3196 35.1666 39.7859 34.9735 40.1297 34.6297C40.4735 34.2859 40.6667 33.8195 40.6667 33.3333C40.6667 31.8746 40.0872 30.4757 39.0558 29.4442C38.0243 28.4128 36.6254 27.8333 35.1667 27.8333C33.708 27.8333 32.309 28.4128 31.2776 29.4442C30.2461 30.4757 29.6667 31.8746 29.6667 33.3333C29.6642 34.4303 29.9898 35.5029 30.6017 36.4133C30.8543 36.7719 31.143 37.1036 31.4633 37.4033L31.83 37.8066C32.031 38.1079 32.1383 38.462 32.1383 38.8241C32.1383 39.1863 32.031 39.5404 31.83 39.8416C31.5535 40.2406 31.4465 40.7328 31.5324 41.2106C31.6183 41.6883 31.8902 42.1124 32.2883 42.39C32.5949 42.604 32.9595 42.7191 33.3333 42.72C33.6289 42.7195 33.92 42.6476 34.1817 42.5103C34.4435 42.373 34.6682 42.1745 34.8367 41.9316C35.4633 41.0165 35.7987 39.9333 35.7987 38.8241C35.7987 37.715 35.4633 36.6318 34.8367 35.7166C34.6439 35.4431 34.4293 35.1856 34.195 34.9466L33.9383 34.69C33.8311 34.5888 33.7329 34.4784 33.645 34.36C33.4411 34.0565 33.3325 33.699 33.3333 33.3333C33.3333 32.8471 33.5265 32.3808 33.8703 32.037C34.2141 31.6931 34.6804 31.5 35.1667 31.5ZM27.8333 42.5C28.1959 42.5 28.5504 42.3925 28.8519 42.191C29.1534 41.9896 29.3884 41.7032 29.5271 41.3682C29.6659 41.0332 29.7022 40.6646 29.6314 40.309C29.5607 39.9534 29.3861 39.6267 29.1297 39.3703C28.8733 39.1139 28.5466 38.9393 28.191 38.8685C27.8354 38.7978 27.4667 38.8341 27.1317 38.9729C26.7968 39.1116 26.5104 39.3466 26.309 39.6481C26.1075 39.9496 26 40.304 26 40.6666C26 41.1529 26.1932 41.6192 26.537 41.963C26.8808 42.3068 27.3471 42.5 27.8333 42.5Z" fill="white"/>
</svg>
