<svg width="74" height="74" viewBox="0 0 74 74" fill="none" xmlns="http://www.w3.org/2000/svg">
<circle cx="37" cy="37" r="37" fill="#EF3A01"/>
<path d="M55.3334 24.3133C55.3349 23.1954 55.0046 22.1022 54.3842 21.1721C53.7639 20.2421 52.8814 19.5172 51.8487 19.0892C50.8159 18.6611 49.6794 18.5493 48.583 18.7678C47.4866 18.9864 46.4798 19.5254 45.6901 20.3167L40.5384 25.4683L28.6401 21.5083C28.3233 21.4088 27.9854 21.3971 27.6625 21.4746C27.3396 21.5521 27.0438 21.7158 26.8067 21.9483L22.4434 26.275C22.2367 26.4841 22.0833 26.7399 21.9962 27.0208C21.909 27.3017 21.8908 27.5994 21.9429 27.8889C21.9951 28.1783 22.116 28.4509 22.2957 28.6838C22.4753 28.9166 22.7083 29.1028 22.9751 29.2267L32.4717 33.535L27.7051 38.3017L24.5701 36.725C24.2316 36.5418 23.844 36.4698 23.4623 36.5191C23.0806 36.5685 22.7242 36.7367 22.4434 37L19.1984 40.3183C18.8569 40.6618 18.6653 41.1265 18.6653 41.6108C18.6653 42.0952 18.8569 42.5598 19.1984 42.9033L31.0967 54.8017C31.4402 55.1431 31.9049 55.3348 32.3892 55.3348C32.8736 55.3348 33.3382 55.1431 33.6817 54.8017L37.0001 51.5567C37.2752 51.2844 37.4571 50.9319 37.5197 50.5499C37.5823 50.1679 37.5223 49.7759 37.3484 49.43L35.7717 46.295L40.5384 41.5283L44.8467 51.025C44.9706 51.2917 45.1568 51.5247 45.3896 51.7044C45.6225 51.884 45.8951 52.005 46.1845 52.0571C46.474 52.1093 46.7717 52.091 47.0526 52.0039C47.3335 51.9168 47.5893 51.7634 47.7984 51.5567L52.1251 47.23C52.3576 46.9929 52.5213 46.6971 52.5988 46.3742C52.6763 46.0513 52.6646 45.7134 52.5651 45.3967L48.6051 33.4983L53.6834 28.31C54.21 27.7867 54.6271 27.1638 54.9103 26.4776C55.1936 25.7914 55.3375 25.0557 55.3334 24.3133ZM51.0801 25.725L45.1401 31.665C44.9076 31.9021 44.7438 32.1979 44.6663 32.5208C44.5888 32.8437 44.6005 33.1815 44.7001 33.4983L48.6601 45.3783L47.0101 47.0283L42.7017 37.55C42.5795 37.2808 42.3939 37.0452 42.1608 36.8632C41.9278 36.6812 41.6542 36.5583 41.3634 36.505C41.0702 36.4515 40.7684 36.4703 40.484 36.5597C40.1997 36.6492 39.9415 36.8066 39.7317 37.0183L32.1784 44.645C31.9072 44.9159 31.7278 45.265 31.6653 45.6432C31.6028 46.0213 31.6604 46.4096 31.8301 46.7533L33.3334 49.8333L32.3067 50.86L23.0851 41.62L24.1667 40.6667L27.3017 42.2433C27.6455 42.413 28.0337 42.4706 28.4119 42.4081C28.7901 42.3456 29.1392 42.1662 29.4101 41.895L37.0001 34.2683C37.2107 34.0593 37.3675 33.8023 37.4569 33.5193C37.5463 33.2364 37.5657 32.9359 37.5134 32.6438C37.4612 32.3517 37.3387 32.0767 37.1567 31.8423C36.9747 31.608 36.7385 31.4213 36.4684 31.2983L26.9167 26.99L28.5667 25.34L40.4467 29.3C40.7635 29.3996 41.1014 29.4112 41.4243 29.3337C41.7472 29.2562 42.043 29.0925 42.2801 28.86L48.2201 22.92C48.4028 22.7332 48.6209 22.5847 48.8618 22.4834C49.1026 22.3821 49.3613 22.3299 49.6226 22.3299C49.8839 22.3299 50.1425 22.3821 50.3834 22.4834C50.6242 22.5847 50.8424 22.7332 51.0251 22.92C51.2163 23.0972 51.3675 23.3131 51.4687 23.5534C51.5699 23.7936 51.6186 24.0527 51.6117 24.3133C51.6217 24.5722 51.5798 24.8304 51.4885 25.0728C51.3972 25.3153 51.2583 25.537 51.0801 25.725Z" fill="white"/>
</svg>
