<svg width="74" height="74" viewBox="0 0 74 74" fill="none" xmlns="http://www.w3.org/2000/svg">
<circle cx="37" cy="37" r="37" fill="#EF3A01"/>
<path d="M30.3268 43.105C29.9572 43.4154 29.725 43.8589 29.6804 44.3394C29.6357 44.8199 29.7824 45.2986 30.0884 45.6717C30.2423 45.8573 30.4313 46.0108 30.6447 46.1233C30.858 46.2357 31.0914 46.305 31.3315 46.3272C31.5716 46.3493 31.8137 46.3239 32.044 46.2523C32.2743 46.1807 32.4882 46.0644 32.6734 45.91C33.899 44.9219 35.4258 44.3831 37.0001 44.3831C38.5744 44.3831 40.1012 44.9219 41.3268 45.91C41.512 46.0644 41.7259 46.1807 41.9562 46.2523C42.1864 46.3239 42.4286 46.3493 42.6687 46.3272C42.9088 46.305 43.1422 46.2357 43.3555 46.1233C43.5688 46.0108 43.7579 45.8573 43.9118 45.6717C44.2178 45.2986 44.3644 44.8199 44.3198 44.3394C44.2752 43.8589 44.0429 43.4154 43.6734 43.105C41.7816 41.5844 39.4273 40.7554 37.0001 40.7554C34.5729 40.7554 32.2185 41.5844 30.3268 43.105ZM31.5001 35.1667C31.8627 35.1667 32.2171 35.0592 32.5186 34.8577C32.8201 34.6563 33.0551 34.3699 33.1939 34.0349C33.3326 33.6999 33.3689 33.3313 33.2982 32.9757C33.2275 32.6201 33.0528 32.2934 32.7965 32.037C32.5401 31.7806 32.2134 31.606 31.8578 31.5352C31.5021 31.4645 31.1335 31.5008 30.7985 31.6396C30.4635 31.7783 30.1772 32.0133 29.9757 32.3148C29.7743 32.6163 29.6668 32.9708 29.6668 33.3334C29.6668 33.8196 29.8599 34.2859 30.2037 34.6297C30.5475 34.9735 31.0139 35.1667 31.5001 35.1667ZM37.0001 18.6667C33.3741 18.6667 29.8295 19.7419 26.8146 21.7564C23.7997 23.7709 21.4499 26.6342 20.0623 29.9842C18.6747 33.3341 18.3116 37.0204 19.019 40.5767C19.7264 44.133 21.4725 47.3997 24.0365 49.9636C26.6004 52.5276 29.8671 54.2737 33.4234 54.9811C36.9798 55.6885 40.666 55.3254 44.016 53.9378C47.3659 52.5502 50.2292 50.2004 52.2437 47.1855C54.2582 44.1706 55.3334 40.626 55.3334 37C55.3334 34.5925 54.8592 32.2085 53.9379 29.9842C53.0165 27.7599 51.6661 25.7388 49.9637 24.0364C48.2613 22.334 46.2403 20.9836 44.016 20.0622C41.7917 19.1409 39.4077 18.6667 37.0001 18.6667ZM37.0001 51.6667C34.0993 51.6667 31.2636 50.8065 28.8517 49.1949C26.4398 47.5833 24.5599 45.2927 23.4499 42.6127C22.3398 39.9327 22.0493 36.9838 22.6152 34.1387C23.1812 31.2936 24.578 28.6803 26.6292 26.6291C28.6804 24.578 31.2937 23.1811 34.1388 22.6152C36.9838 22.0493 39.9328 22.3397 42.6128 23.4498C45.2928 24.5599 47.5834 26.4397 49.195 28.8517C50.8066 31.2636 51.6668 34.0992 51.6668 37C51.6668 40.8899 50.1215 44.6204 47.371 47.3709C44.6205 50.1215 40.8899 51.6667 37.0001 51.6667ZM42.5001 31.5C42.1375 31.5 41.783 31.6075 41.4815 31.809C41.1801 32.0104 40.9451 32.2968 40.8063 32.6318C40.6676 32.9668 40.6312 33.3354 40.702 33.691C40.7727 34.0467 40.9473 34.3733 41.2037 34.6297C41.4601 34.8861 41.7868 35.0607 42.1424 35.1315C42.4981 35.2022 42.8667 35.1659 43.2017 35.0271C43.5367 34.8884 43.823 34.6534 44.0245 34.3519C44.2259 34.0504 44.3334 33.696 44.3334 33.3334C44.3334 32.8471 44.1403 32.3808 43.7965 32.037C43.4526 31.6932 42.9863 31.5 42.5001 31.5Z" fill="white"/>
</svg>
