<svg width="74" height="74" viewBox="0 0 74 74" fill="none" xmlns="http://www.w3.org/2000/svg">
<circle cx="37" cy="37" r="37" fill="#EF3A01"/>
<path d="M51.0799 27.6133C49.2118 26.6315 47.0333 26.4209 45.0116 27.0267C44.9132 24.9705 44.0271 23.0312 42.5371 21.6108C41.0471 20.1905 39.0676 19.3981 37.0091 19.3981C34.9506 19.3981 32.9711 20.1905 31.4811 21.6108C29.9912 23.0312 29.1051 24.9705 29.0066 27.0267C26.9905 26.4195 24.8181 26.6098 22.9383 27.5583C21.5539 28.2859 20.4128 29.4028 19.6556 30.7713C18.8984 32.1397 18.5583 33.6998 18.6772 35.2592C18.7962 36.8186 19.3689 38.3091 20.3248 39.5469C21.2807 40.7847 22.5779 41.7157 24.0566 42.225C23.1128 43.568 22.6011 45.1669 22.5899 46.8083C22.5981 47.2692 22.641 47.7289 22.7183 48.1833C23.027 50.0452 23.9875 51.7366 25.4282 52.9557C26.8689 54.1747 28.696 54.842 30.5833 54.8383C30.9739 54.8651 31.366 54.8651 31.7566 54.8383C33.8522 54.5082 35.7347 53.3695 36.9999 51.6667C38.2784 53.3419 40.1591 54.4533 42.2433 54.765C42.6339 54.7918 43.026 54.7918 43.4166 54.765C44.8799 54.7633 46.3146 54.36 47.5644 53.599C48.8142 52.838 49.8312 51.7485 50.5044 50.4493C51.1777 49.1501 51.4814 47.6911 51.3824 46.2311C51.2835 44.7712 50.7857 43.3665 49.9433 42.17C51.4292 41.6695 52.7351 40.743 53.6984 39.5059C54.6617 38.2688 55.2399 36.7757 55.3611 35.2125C55.4822 33.6493 55.141 32.0849 54.3797 30.7142C53.6185 29.3434 52.471 28.2268 51.0799 27.5033V27.6133ZM33.9566 24.0567C34.7756 23.2723 35.8659 22.8344 36.9999 22.8344C38.134 22.8344 39.2242 23.2723 40.0433 24.0567C40.6686 24.6829 41.0932 25.4812 41.263 26.3497C41.4328 27.2183 41.34 28.1177 40.9966 28.9333L40.5199 30.015L39.3099 31.0783C38.566 30.823 37.7864 30.6868 36.9999 30.675C35.9835 30.676 34.9783 30.8882 34.0483 31.2983L33.0216 28.9333C32.6658 28.1213 32.5647 27.2205 32.7316 26.3498C32.8986 25.4791 33.3257 24.6795 33.9566 24.0567ZM22.7733 36.5967C22.364 35.6961 22.2743 34.6828 22.519 33.7243C22.7637 32.7658 23.3281 31.9195 24.119 31.3252C24.9098 30.731 25.8798 30.4245 26.8685 30.4562C27.8572 30.488 28.8055 30.8562 29.5566 31.5L30.4549 32.2883L31.0966 33.755C30.1782 34.9838 29.6771 36.4743 29.6666 38.0083C29.6449 38.2829 29.6449 38.5588 29.6666 38.8333H28.6583L27.1183 38.98C26.2374 39.0729 25.3492 38.8945 24.5727 38.4685C23.7961 38.0426 23.1683 37.3894 22.7733 36.5967ZM34.8733 47.7433C34.6526 48.722 34.1013 49.5948 33.3124 50.2146C32.5235 50.8344 31.5451 51.1634 30.5419 51.1462C29.5388 51.1289 28.5723 50.7666 27.8051 50.12C27.0379 49.4735 26.5169 48.5824 26.3299 47.5967C26.3124 47.3403 26.3124 47.083 26.3299 46.8267C26.3366 46.0815 26.5381 45.351 26.9143 44.7078C27.2906 44.0646 27.8286 43.531 28.4749 43.16L29.4099 42.5L31.0783 42.3167C32.1298 43.7795 33.683 44.8041 35.4416 45.195L34.8733 47.7433ZM36.9999 41.675C36.2747 41.675 35.5658 41.4599 34.9629 41.057C34.3599 40.6541 33.8899 40.0815 33.6124 39.4115C33.3349 38.7415 33.2623 38.0043 33.4037 37.293C33.5452 36.5817 33.8944 35.9284 34.4072 35.4156C34.92 34.9028 35.5733 34.5536 36.2846 34.4121C36.9959 34.2706 37.7331 34.3432 38.4031 34.6208C39.0731 34.8983 39.6458 35.3683 40.0487 35.9712C40.4516 36.5742 40.6666 37.2831 40.6666 38.0083C40.6666 38.9808 40.2803 39.9134 39.5927 40.601C38.905 41.2887 37.9724 41.675 36.9999 41.675ZM47.6699 47.5783C47.4808 48.697 46.8599 49.6965 45.9409 50.3618C45.0219 51.027 43.8784 51.3047 42.7566 51.135C41.8727 51.0104 41.048 50.6189 40.3927 50.0128C39.7374 49.4066 39.2829 48.6148 39.0899 47.7433L38.8333 46.6433L39.2183 44.9567C40.9095 44.4058 42.343 43.2591 43.2516 41.73L44.1683 42.28H44.3333L45.5433 42.995C46.3294 43.4439 46.9565 44.1263 47.3375 44.9475C47.7186 45.7687 47.8347 46.6881 47.6699 47.5783ZM51.2266 36.5783C50.866 37.307 50.3098 37.9211 49.6201 38.3517C48.9305 38.7823 48.1346 39.0125 47.3216 39.0167H46.8816L45.7083 38.8333L44.3333 38.0817C44.3307 36.2991 43.679 34.5786 42.4999 33.2417L43.2883 32.5633L44.4433 31.5C45.1965 30.8304 46.1591 30.4434 47.1662 30.4054C48.1734 30.3673 49.1624 30.6806 49.964 31.2915C50.7656 31.9025 51.3299 32.7731 51.5602 33.7543C51.7905 34.7354 51.6726 35.7662 51.2266 36.67V36.5783Z" fill="white"/>
<path d="M51.0799 27.6133C49.2118 26.6315 47.0333 26.4209 45.0116 27.0267C44.9132 24.9705 44.0271 23.0312 42.5371 21.6108C41.0471 20.1905 39.0676 19.3981 37.0091 19.3981C34.9506 19.3981 32.9711 20.1905 31.4811 21.6108C29.9912 23.0312 29.1051 24.9705 29.0066 27.0267C26.9905 26.4195 24.8181 26.6098 22.9383 27.5583C21.5539 28.2859 20.4128 29.4028 19.6556 30.7713C18.8984 32.1397 18.5583 33.6998 18.6772 35.2592C18.7962 36.8186 19.3689 38.3091 20.3248 39.5469C21.2807 40.7847 22.5779 41.7157 24.0566 42.225C23.1128 43.568 22.6011 45.1669 22.5899 46.8083C22.5981 47.2692 22.641 47.7289 22.7183 48.1833C23.027 50.0452 23.9875 51.7366 25.4282 52.9557C26.8689 54.1747 28.696 54.842 30.5833 54.8383C30.9739 54.8651 31.366 54.8651 31.7566 54.8383C33.8522 54.5082 35.7347 53.3695 36.9999 51.6667C38.2784 53.3419 40.1591 54.4533 42.2433 54.765C42.6339 54.7918 43.026 54.7918 43.4166 54.765C44.8799 54.7633 46.3146 54.36 47.5644 53.599C48.8142 52.838 49.8312 51.7485 50.5044 50.4493C51.1777 49.1501 51.4814 47.6911 51.3824 46.2311C51.2835 44.7712 50.7857 43.3665 49.9433 42.17C51.4292 41.6695 52.7351 40.743 53.6984 39.5059C54.6617 38.2688 55.2399 36.7757 55.3611 35.2125C55.4822 33.6493 55.141 32.0849 54.3797 30.7142C53.6185 29.3434 52.471 28.2268 51.0799 27.5033V27.6133ZM33.9566 24.0567C34.7756 23.2723 35.8659 22.8344 36.9999 22.8344C38.134 22.8344 39.2242 23.2723 40.0433 24.0567C40.6686 24.6829 41.0932 25.4812 41.263 26.3497C41.4328 27.2183 41.34 28.1177 40.9966 28.9333L40.5199 30.015L39.3099 31.0783C38.566 30.823 37.7864 30.6868 36.9999 30.675C35.9835 30.676 34.9783 30.8882 34.0483 31.2983L33.0216 28.9333C32.6658 28.1213 32.5647 27.2205 32.7316 26.3498C32.8986 25.4791 33.3257 24.6795 33.9566 24.0567ZM22.7733 36.5967C22.364 35.6961 22.2743 34.6828 22.519 33.7243C22.7637 32.7658 23.3281 31.9195 24.119 31.3252C24.9098 30.731 25.8798 30.4245 26.8685 30.4562C27.8572 30.488 28.8055 30.8562 29.5566 31.5L30.4549 32.2883L31.0966 33.755C30.1782 34.9838 29.6771 36.4743 29.6666 38.0083C29.6449 38.2829 29.6449 38.5588 29.6666 38.8333H28.6583L27.1183 38.98C26.2374 39.0729 25.3492 38.8945 24.5727 38.4685C23.7961 38.0426 23.1683 37.3894 22.7733 36.5967ZM34.8733 47.7433C34.6526 48.722 34.1013 49.5948 33.3124 50.2146C32.5235 50.8344 31.5451 51.1634 30.5419 51.1462C29.5388 51.1289 28.5723 50.7666 27.8051 50.12C27.0379 49.4735 26.5169 48.5824 26.3299 47.5967C26.3124 47.3403 26.3124 47.083 26.3299 46.8267C26.3366 46.0815 26.5381 45.351 26.9143 44.7078C27.2906 44.0646 27.8286 43.531 28.4749 43.16L29.4099 42.5L31.0783 42.3167C32.1298 43.7795 33.683 44.8041 35.4416 45.195L34.8733 47.7433ZM36.9999 41.675C36.2747 41.675 35.5658 41.4599 34.9629 41.057C34.3599 40.6541 33.8899 40.0815 33.6124 39.4115C33.3349 38.7415 33.2623 38.0043 33.4037 37.293C33.5452 36.5817 33.8944 35.9284 34.4072 35.4156C34.92 34.9028 35.5733 34.5536 36.2846 34.4121C36.9959 34.2706 37.7331 34.3432 38.4031 34.6208C39.0731 34.8983 39.6458 35.3683 40.0487 35.9712C40.4516 36.5742 40.6666 37.2831 40.6666 38.0083C40.6666 38.9808 40.2803 39.9134 39.5927 40.601C38.905 41.2887 37.9724 41.675 36.9999 41.675ZM47.6699 47.5783C47.4808 48.697 46.8599 49.6965 45.9409 50.3618C45.0219 51.027 43.8784 51.3047 42.7566 51.135C41.8727 51.0104 41.048 50.6189 40.3927 50.0128C39.7374 49.4066 39.2829 48.6148 39.0899 47.7433L38.8333 46.6433L39.2183 44.9567C40.9095 44.4058 42.343 43.2591 43.2516 41.73L44.1683 42.28H44.3333L45.5433 42.995C46.3294 43.4439 46.9565 44.1263 47.3375 44.9475C47.7186 45.7687 47.8347 46.6881 47.6699 47.5783ZM51.2266 36.5783C50.866 37.307 50.3098 37.9211 49.6201 38.3517C48.9305 38.7823 48.1346 39.0125 47.3216 39.0167H46.8816L45.7083 38.8333L44.3333 38.0817C44.3307 36.2991 43.679 34.5786 42.4999 33.2417L43.2883 32.5633L44.4433 31.5C45.1965 30.8304 46.1591 30.4434 47.1662 30.4054C48.1734 30.3673 49.1624 30.6806 49.964 31.2915C50.7656 31.9025 51.3299 32.7731 51.5602 33.7543C51.7905 34.7354 51.6726 35.7662 51.2266 36.67V36.5783Z" fill="white"/>
</svg>
