<svg width="74" height="74" viewBox="0 0 74 74" fill="none" xmlns="http://www.w3.org/2000/svg">
<circle cx="37" cy="37" r="37" fill="#EF3A01"/>
<path d="M53.8117 18.7767C52.4975 18.5503 51.1668 18.4338 49.8333 18.4284C45.2837 18.4246 40.8289 19.7292 37 22.1867C33.1613 19.7615 28.7072 18.4889 24.1667 18.52C22.8332 18.5255 21.5025 18.642 20.1883 18.8684C19.7579 18.9426 19.3681 19.168 19.0891 19.5041C18.8101 19.8403 18.6603 20.2649 18.6667 20.7017V42.7017C18.6627 42.9711 18.7182 43.238 18.8292 43.4835C18.9401 43.729 19.1038 43.947 19.3086 44.1221C19.5134 44.2971 19.7543 44.4249 20.0141 44.4962C20.2739 44.5676 20.5462 44.5809 20.8117 44.535C23.4389 44.0801 26.1305 44.1556 28.7281 44.757C31.3257 45.3584 33.7767 46.4735 35.9367 48.0367L36.1567 48.165H36.3583C36.5616 48.2497 36.7797 48.2934 37 48.2934C37.2203 48.2934 37.4383 48.2497 37.6417 48.165H37.8433L38.0633 48.0367C40.2082 46.4386 42.6522 45.2873 45.2503 44.6512C47.8483 44.015 50.5477 43.907 53.1883 44.3334C53.4538 44.3792 53.7261 44.3659 53.9859 44.2946C54.2457 44.2232 54.4865 44.0954 54.6913 43.9204C54.8961 43.7453 55.0598 43.5273 55.1708 43.2818C55.2818 43.0363 55.3372 42.7694 55.3333 42.5V20.5C55.3142 20.0823 55.1529 19.6837 54.8762 19.3702C54.5994 19.0568 54.2238 18.8473 53.8117 18.7767ZM35.1667 43.1417C31.7748 41.3573 27.9993 40.426 24.1667 40.4284H22.3333V22.095C22.9439 22.0598 23.5561 22.0598 24.1667 22.095C28.0779 22.0907 31.9037 23.2385 35.1667 25.395V43.1417ZM51.6667 40.5017H49.8333C46.0007 40.4993 42.2252 41.4306 38.8333 43.215V25.395C42.0963 23.2385 45.9221 22.0907 49.8333 22.095C50.4439 22.0598 51.0561 22.0598 51.6667 22.095V40.5017ZM53.8117 48.11C52.4975 47.8837 51.1668 47.7672 49.8333 47.7617C45.2837 47.758 40.8289 49.0626 37 51.52C33.1711 49.0626 28.7163 47.758 24.1667 47.7617C22.8332 47.7672 21.5025 47.8837 20.1883 48.11C19.9497 48.1479 19.7209 48.2326 19.5151 48.3592C19.3092 48.4858 19.1305 48.6518 18.9891 48.8478C18.8477 49.0437 18.7464 49.2657 18.691 49.5009C18.6357 49.7361 18.6274 49.9799 18.6667 50.2184C18.7598 50.6944 19.0379 51.1142 19.4399 51.3857C19.842 51.6571 20.3352 51.7582 20.8117 51.6667C23.4389 51.2118 26.1305 51.2873 28.7281 51.8887C31.3257 52.49 33.7767 53.6052 35.9367 55.1684C36.2472 55.3894 36.6188 55.5082 37 55.5082C37.3811 55.5082 37.7528 55.3894 38.0633 55.1684C40.2233 53.6052 42.6743 52.49 45.2719 51.8887C47.8695 51.2873 50.5611 51.2118 53.1883 51.6667C53.6647 51.7582 54.158 51.6571 54.56 51.3857C54.9621 51.1142 55.2402 50.6944 55.3333 50.2184C55.3726 49.9799 55.3643 49.7361 55.3089 49.5009C55.2536 49.2657 55.1523 49.0437 55.0109 48.8478C54.8695 48.6518 54.6907 48.4858 54.4849 48.3592C54.2791 48.2326 54.0503 48.1479 53.8117 48.11Z" fill="white"/>
</svg>
