<svg width="74" height="74" viewBox="0 0 74 74" fill="none" xmlns="http://www.w3.org/2000/svg">
<circle cx="37" cy="37" r="37" fill="#EF3A01"/>
<path d="M47.0467 27.0083L41.84 21.8017C41.6696 21.6298 41.4668 21.4935 41.2434 21.4004C41.02 21.3073 40.7804 21.2594 40.5383 21.2594C40.2963 21.2594 40.0567 21.3073 39.8333 21.4004C39.6099 21.4935 39.4071 21.6298 39.2367 21.8017C38.8952 22.1452 38.7036 22.6098 38.7036 23.0942C38.7036 23.5785 38.8952 24.0432 39.2367 24.3867L43.1233 28.2733L28.2733 43.1233L24.3867 39.2367C24.0432 38.8952 23.5785 38.7036 23.0942 38.7036C22.6098 38.7036 22.1452 38.8952 21.8017 39.2367C21.6298 39.4071 21.4935 39.6099 21.4004 39.8333C21.3073 40.0567 21.2594 40.2963 21.2594 40.5383C21.2594 40.7804 21.3073 41.02 21.4004 41.2434C21.4935 41.4668 21.6298 41.6696 21.8017 41.84L26.9533 46.9917L32.105 52.1433C32.2748 52.3166 32.4773 52.4544 32.7007 52.5488C32.9242 52.6432 33.1641 52.6923 33.4067 52.6933C33.7708 52.6955 34.1274 52.5891 34.4308 52.3878C34.7343 52.1865 34.9709 51.8994 35.1105 51.5631C35.2502 51.2267 35.2865 50.8565 35.2149 50.4994C35.1432 50.1424 34.9669 49.8148 34.7083 49.5583L30.8767 45.7267L45.7267 30.8767L49.6133 34.7633C49.7843 34.9331 49.987 35.0675 50.2099 35.1589C50.4327 35.2503 50.6714 35.2969 50.9123 35.296C51.1532 35.2952 51.3916 35.2469 51.6138 35.1539C51.836 35.0609 52.0378 34.9251 52.2075 34.7542C52.3772 34.5832 52.5117 34.3805 52.6031 34.1577C52.6944 33.9348 52.7411 33.6961 52.7402 33.4552C52.7393 33.2143 52.6911 32.9759 52.5981 32.7537C52.5051 32.5315 52.3693 32.3297 52.1983 32.16L47.0467 27.0083ZM21.8017 47.01C21.4565 46.6648 20.9882 46.4708 20.5 46.4708C20.0118 46.4708 19.5436 46.6648 19.1983 47.01C18.8531 47.3552 18.6592 47.8235 18.6592 48.3117C18.6592 48.7999 18.8531 49.2681 19.1983 49.6133L24.3867 54.8017C24.558 54.9716 24.7612 55.106 24.9845 55.1973C25.2079 55.2885 25.4471 55.3347 25.6883 55.3333C25.9296 55.3347 26.1688 55.2885 26.3922 55.1973C26.6155 55.106 26.8187 54.9716 26.99 54.8017C27.1618 54.6312 27.2982 54.4285 27.3913 54.2051C27.4844 53.9817 27.5323 53.742 27.5323 53.5C27.5323 53.258 27.4844 53.0184 27.3913 52.795C27.2982 52.5715 27.1618 52.3688 26.99 52.1983L21.8017 47.01ZM54.8017 24.3867L49.6133 19.1983C49.2681 18.8531 48.7999 18.6592 48.3117 18.6592C47.8235 18.6592 47.3552 18.8531 47.01 19.1983C46.6648 19.5436 46.4708 20.0118 46.4708 20.5C46.4708 20.9882 46.6648 21.4565 47.01 21.8017L52.1983 26.99C52.3688 27.1618 52.5715 27.2982 52.795 27.3913C53.0184 27.4844 53.258 27.5323 53.5 27.5323C53.742 27.5323 53.9817 27.4844 54.2051 27.3913C54.4285 27.2982 54.6312 27.1618 54.8017 26.99C54.9735 26.8196 55.1099 26.6168 55.203 26.3934C55.2961 26.17 55.344 25.9304 55.344 25.6883C55.344 25.4463 55.2961 25.2067 55.203 24.9833C55.1099 24.7599 54.9735 24.5571 54.8017 24.3867Z" fill="white"/>
</svg>
