<svg width="74" height="74" viewBox="0 0 74 74" fill="none" xmlns="http://www.w3.org/2000/svg">
<circle cx="37" cy="37" r="37" fill="#EF3A01"/>
<path d="M36.9999 43.4167C36.6373 43.4167 36.2828 43.5242 35.9813 43.7257C35.6798 43.9271 35.4449 44.2134 35.3061 44.5484C35.1673 44.8834 35.131 45.252 35.2018 45.6077C35.2725 45.9633 35.4471 46.29 35.7035 46.5464C35.9599 46.8028 36.2866 46.9774 36.6422 47.0481C36.9978 47.1189 37.3665 47.0826 37.7015 46.9438C38.0365 46.805 38.3228 46.57 38.5242 46.2686C38.7257 45.9671 38.8332 45.6126 38.8332 45.25C38.8332 44.7638 38.6401 44.2975 38.2962 43.9536C37.9524 43.6098 37.4861 43.4167 36.9999 43.4167ZM36.9999 18.6667C36.6558 18.6669 36.3119 18.6847 35.9695 18.7198C31.2023 18.9812 26.7255 21.0933 23.4923 24.6063C20.2591 28.1193 18.5251 32.7557 18.6594 37.5282C18.7937 42.3007 20.7857 46.8322 24.2113 50.1579C27.637 53.4835 32.2255 55.3405 36.9999 55.3333C37.344 55.3331 37.6879 55.3153 38.0302 55.2802C42.7974 55.0188 47.2743 52.9067 50.5075 49.3937C53.7406 45.8807 55.4747 41.2443 55.3404 36.4718C55.2061 31.6993 53.214 27.1678 49.7884 23.8422C46.3628 20.5165 41.7743 18.6596 36.9999 18.6667ZM36.9999 51.6667C34.0222 51.6706 31.1141 50.7669 28.6631 49.076C26.2121 47.385 24.3347 44.9872 23.2812 42.2021C22.2277 39.417 22.0482 36.377 22.7664 33.4872C23.4847 30.5974 25.0667 27.9953 27.3015 26.0275C26.8752 27.5257 26.8028 29.1024 27.09 30.6334C27.3773 32.1643 28.0163 33.6076 28.9567 34.8494C29.8971 36.0911 31.1132 37.0973 32.509 37.7887C33.9049 38.4801 35.4422 38.8377 36.9999 38.8333C38.7017 38.8333 40.3338 39.5094 41.5372 40.7127C42.7405 41.9161 43.4165 43.5482 43.4165 45.25C43.4165 46.9518 42.7405 48.5839 41.5372 49.7873C40.3338 50.9906 38.7017 51.6667 36.9999 51.6667ZM46.6982 47.9725C47.1246 46.4743 47.197 44.8976 46.9097 43.3666C46.6225 41.8357 45.9835 40.3924 45.043 39.1507C44.1026 37.9089 42.8865 36.9027 41.4907 36.2113C40.0949 35.5199 38.5575 35.1623 36.9999 35.1667C35.2981 35.1667 33.666 34.4906 32.4626 33.2873C31.2593 32.0839 30.5832 30.4518 30.5832 28.75C30.5832 27.0482 31.2593 25.4161 32.4626 24.2127C33.666 23.0094 35.2981 22.3333 36.9999 22.3333C39.9776 22.3294 42.8857 23.2331 45.3367 24.9241C47.7877 26.615 49.665 29.0128 50.7185 31.7979C51.772 34.583 51.9516 37.6231 51.2333 40.5128C50.5151 43.4026 48.9331 46.0048 46.6982 47.9725ZM36.9999 26.9167C36.6373 26.9167 36.2828 27.0242 35.9813 27.2256C35.6798 27.4271 35.4449 27.7134 35.3061 28.0484C35.1673 28.3834 35.131 28.752 35.2018 29.1077C35.2725 29.4633 35.4471 29.79 35.7035 30.0464C35.9599 30.3028 36.2866 30.4774 36.6422 30.5481C36.9978 30.6189 37.3665 30.5826 37.7015 30.4438C38.0365 30.305 38.3228 30.07 38.5242 29.7686C38.7257 29.4671 38.8332 29.1126 38.8332 28.75C38.8332 28.2638 38.6401 27.7975 38.2962 27.4536C37.9524 27.1098 37.4861 26.9167 36.9999 26.9167Z" fill="white"/>
</svg>
