<svg width="74" height="74" viewBox="0 0 74 74" fill="none" xmlns="http://www.w3.org/2000/svg">
<circle cx="37" cy="37" r="37" fill="#EF3A01"/>
<path d="M41.9868 31.115L34.1218 38.9984L31.0968 35.9734C30.9324 35.7814 30.7302 35.6256 30.5027 35.5155C30.2752 35.4055 30.0275 35.3436 29.775 35.3339C29.5225 35.3241 29.2708 35.3667 29.0355 35.4589C28.8002 35.551 28.5866 35.6908 28.4079 35.8695C28.2292 36.0482 28.0894 36.2618 27.9973 36.4971C27.9051 36.7324 27.8625 36.9841 27.8723 37.2366C27.882 37.4891 27.9439 37.7368 28.0539 37.9643C28.164 38.1918 28.3198 38.394 28.5118 38.5584L32.8201 42.885C32.9914 43.0549 33.1946 43.1894 33.4179 43.2806C33.6413 43.3718 33.8805 43.4181 34.1218 43.4167C34.6027 43.4147 35.0636 43.2237 35.4051 42.885L44.5718 33.7184C44.7436 33.5479 44.88 33.3452 44.9731 33.1217C45.0661 32.8983 45.1141 32.6587 45.1141 32.4167C45.1141 32.1747 45.0661 31.935 44.9731 31.7116C44.88 31.4882 44.7436 31.2855 44.5718 31.115C44.2283 30.7736 43.7636 30.5819 43.2793 30.5819C42.7949 30.5819 42.3303 30.7736 41.9868 31.115ZM37.0001 18.6667C33.3741 18.6667 29.8295 19.7419 26.8146 21.7564C23.7997 23.7709 21.4499 26.6342 20.0623 29.9842C18.6747 33.3341 18.3116 37.0204 19.019 40.5767C19.7264 44.133 21.4725 47.3997 24.0365 49.9636C26.6004 52.5276 29.8671 54.2737 33.4234 54.9811C36.9798 55.6885 40.666 55.3254 44.016 53.9378C47.3659 52.5502 50.2292 50.2004 52.2437 47.1855C54.2582 44.1706 55.3334 40.626 55.3334 37C55.3334 34.5925 54.8592 32.2085 53.9379 29.9842C53.0165 27.7599 51.6661 25.7388 49.9637 24.0364C48.2613 22.334 46.2403 20.9836 44.016 20.0622C41.7917 19.1409 39.4077 18.6667 37.0001 18.6667ZM37.0001 51.6667C34.0993 51.6667 31.2636 50.8065 28.8517 49.1949C26.4398 47.5833 24.5599 45.2927 23.4499 42.6127C22.3398 39.9327 22.0493 36.9838 22.6152 34.1387C23.1812 31.2936 24.578 28.6803 26.6292 26.6291C28.6804 24.578 31.2937 23.1811 34.1388 22.6152C36.9838 22.0493 39.9328 22.3397 42.6128 23.4498C45.2928 24.5599 47.5834 26.4397 49.195 28.8517C50.8066 31.2636 51.6668 34.0992 51.6668 37C51.6668 40.8899 50.1215 44.6204 47.371 47.3709C44.6205 50.1215 40.8899 51.6667 37.0001 51.6667Z" fill="white"/>
</svg>
